<svg width="500" height="650" viewBox="0 0 500 650" fill="none" xmlns="http://www.w3.org/2000/svg">
<g clip-path="url(#clip0_19_95)">
<path d="M450 0C477.614 2.47396e-05 500 22.3858 500 50V450C500 477.614 477.614 500 450 500H50C22.3859 500 0 477.614 0 450V50C6.18485e-06 22.3859 22.3859 0.00015258 50 0H450ZM74 24C46.3859 24.0001 24 46.3858 24 74V426C24 453.614 46.3859 476 74 476H426C453.614 476 476 453.614 476 426V74C476 46.3858 453.614 24 426 24H74ZM426 44C442.569 44 456 57.4315 456 74V426C456 442.569 442.569 456 426 456H74C57.4316 456 44 442.568 44 426V74C44 57.4315 57.4316 44.0001 74 44H426ZM345.5 174.5C331.203 174.13 322.254 176.125 310 183.5C297.801 190.842 292.45 198.073 285.5 210.5C279.018 222.09 277.663 229.898 275.5 243C273.75 253.597 273.999 270.454 274 270.5C275 282.833 279.828 309.834 289 321C300.5 335 312 345 329.5 348C343.5 350.4 356 349.851 370.5 348C384.985 346.151 395.478 338.516 395.5 338.5V308.184C395.5 308.164 395.494 306.5 394.5 306.5C393.499 306.501 379.999 314.5 359 315.5C348 315.5 333.861 313.125 326.5 306.5C321.5 302 315.857 296 312 282.5C311 279 311 270.5 311 270.5H386C386.03 270.5 401.003 270.497 404 268C407 265.5 406.5 257 406.5 243C406.5 229 405.057 222.233 399.5 210.5C393.678 198.208 388.927 190.877 377.5 183.5C366.594 176.459 358.477 174.836 345.5 174.5ZM154 117.5C153.974 117.5 152.993 117.507 152.5 118C152 118.5 152 119 152 119L151 135L108.5 275.5L88 343.5C87.9973 343.513 87.5019 346.003 88 347C88.4952 347.991 89.7103 348 89.7314 348H121C121.474 347.905 122.5 347.25 123 346.5C124 345 124.328 343.518 124.5 343C124.851 341.948 133.264 313.005 139.158 292.276L141.5 284H209L228 346.5C228.002 346.505 228.459 347.486 229.25 347.75C230.028 348.009 230.483 348 230.5 348H264C264.007 348 264.931 347.996 265.5 347C265.887 346.323 265.501 345.005 265.5 345L196 117.5H154ZM201 249H149.132L174.5 153L201 249ZM345 204.017C357.5 203.5 367.236 216.208 369.5 223C371.5 229 372.5 239.5 372 241C371.5 242.5 368.5 243.5 366 243.5H311C311.002 243.488 313.282 228.981 316.5 223C326.872 203.72 339.005 204.264 345 204.017Z" fill="#9E779D"/>
<path d="M13.8537 631H3.26289L13.8977 568.246H31.7395L42.3742 631H31.8273L29.5861 616.938H16.1389L13.8537 631ZM18.9953 593.778L17.0617 607.621H28.6193L26.7297 593.778L24.4445 577.562H21.2805L18.9953 593.778ZM59.2246 631H48.9414V568.246H78.165V577.562H59.2246V594.481H77.1104V603.798H59.2246V631ZM105.167 631H94.8836V577.562H82.9305V568.246H117.076V577.562H105.167V631ZM154.141 631H123.423V568.246H154.141V577.562H133.707V594.481H152.955V603.798H133.707V621.684H154.141V631ZM172.002 631H161.719V568.246H178.55C184.849 568.246 189.405 569.359 192.217 571.586C195.059 573.812 196.597 577.489 196.831 582.616C197.037 585.048 197.124 587.128 197.095 588.856C197.095 590.585 197.007 592.621 196.831 594.965C196.685 598.217 195.938 600.868 194.59 602.919C193.243 604.94 191.177 606.479 188.394 607.533L198.633 631H187.647L178.594 609.291H172.002V631ZM172.002 577.562V599.975H178.418C181.202 599.975 183.223 599.594 184.483 598.832C185.743 598.07 186.431 596.972 186.548 595.536C186.929 591.024 186.929 586.527 186.548 582.045C186.431 580.58 185.743 579.467 184.483 578.705C183.223 577.943 181.246 577.562 178.55 577.562H172.002ZM257.866 631H227.148V568.246H257.866V577.562H237.432V594.481H256.68V603.798H237.432V621.684H257.866V631ZM275.727 631H265.444V568.246H294.668V577.562H275.727V594.481H293.613V603.798H275.727V631ZM312.353 631H302.07V568.246H331.294V577.562H312.353V594.481H330.239V603.798H312.353V631ZM369.413 631H338.696V568.246H369.413V577.562H348.979V594.481H368.227V603.798H348.979V621.684H369.413V631ZM394.833 631.703C388.476 631.703 383.935 630.575 381.21 628.319C378.515 626.034 377.094 622.255 376.947 616.981C376.83 613.7 376.742 609.979 376.684 605.819C376.654 601.659 376.654 597.499 376.684 593.339C376.742 589.179 376.83 585.443 376.947 582.133C377.065 577.592 378.515 574.018 381.298 571.41C384.081 568.803 388.578 567.499 394.789 567.499C401.029 567.499 405.556 568.642 408.368 570.927C411.21 573.212 412.719 576.977 412.895 582.221C412.953 583.539 412.968 585.077 412.939 586.835C412.909 588.563 412.865 590.102 412.807 591.449H402.524C402.582 589.896 402.612 588.036 402.612 585.868C402.641 583.671 402.626 581.811 402.568 580.287C402.538 578.91 401.908 577.885 400.678 577.211C399.447 576.508 397.485 576.156 394.789 576.156C392.211 576.156 390.321 576.508 389.12 577.211C387.948 577.885 387.319 578.91 387.231 580.287C387.084 584.213 386.982 588.417 386.923 592.899C386.864 597.353 386.864 601.82 386.923 606.303C386.982 610.785 387.084 614.989 387.231 618.915C387.319 620.292 387.963 621.332 389.164 622.035C390.365 622.738 392.255 623.09 394.833 623.09C397.675 623.09 399.74 622.738 401.029 622.035C402.319 621.332 402.992 620.292 403.051 618.915C403.11 617.362 403.124 615.487 403.095 613.29C403.066 611.063 403.022 609.174 402.963 607.621H413.29C413.378 609.057 413.422 610.609 413.422 612.279C413.451 613.949 413.422 615.517 413.334 616.981C413.129 622.255 411.591 626.034 408.72 628.319C405.878 630.575 401.249 631.703 394.833 631.703ZM441.215 631H430.932V577.562H418.979V568.246H453.124V577.562H441.215V631ZM477.006 631.703C470.56 631.703 465.946 630.575 463.163 628.319C460.38 626.034 458.871 622.24 458.637 616.938C458.402 613.891 458.475 610.771 458.856 607.577H468.7C468.524 609.599 468.422 611.576 468.392 613.51C468.392 615.443 468.495 617.245 468.7 618.915C468.846 620.263 469.55 621.303 470.809 622.035C472.098 622.738 474.149 623.09 476.962 623.09C479.745 623.09 481.737 622.738 482.938 622.035C484.169 621.303 484.872 620.263 485.048 618.915C485.253 617.392 485.341 615.956 485.311 614.608C485.282 613.231 485.194 611.781 485.048 610.258C484.901 608.998 484.432 607.885 483.641 606.918C482.85 605.951 481.283 605.307 478.939 604.984L471.644 603.446C468.187 602.772 465.521 601.806 463.646 600.546C461.801 599.286 460.497 597.704 459.735 595.8C458.973 593.896 458.534 591.654 458.417 589.076C458.358 587.846 458.329 586.674 458.329 585.561C458.358 584.447 458.402 583.334 458.461 582.221C458.637 576.977 460.116 573.212 462.899 570.927C465.682 568.642 470.37 567.499 476.962 567.499C483.173 567.499 487.67 568.642 490.453 570.927C493.236 573.212 494.73 576.977 494.935 582.221C495.023 583.393 495.038 584.843 494.979 586.571C494.95 588.271 494.891 589.896 494.804 591.449H484.872C485.136 587.611 485.165 583.876 484.96 580.243C484.725 577.489 482.045 576.112 476.918 576.112C474.135 576.112 472.128 576.464 470.897 577.167C469.667 577.87 468.964 578.896 468.788 580.243C468.583 581.708 468.48 583.188 468.48 584.682C468.51 586.146 468.612 587.611 468.788 589.076C468.934 590.365 469.403 591.479 470.194 592.416C470.985 593.324 472.626 593.939 475.116 594.262L481.84 595.536C485.414 596.181 488.153 597.162 490.057 598.48C491.962 599.799 493.295 601.439 494.056 603.402C494.847 605.336 495.302 607.621 495.419 610.258C495.507 611.43 495.536 612.558 495.507 613.642C495.477 614.726 495.419 615.824 495.331 616.938C495.096 622.24 493.573 626.034 490.761 628.319C487.977 630.575 483.392 631.703 477.006 631.703Z" fill="#764274"/>
</g>
<defs>
<clipPath id="clip0_19_95">
<rect width="500" height="650" fill="white"/>
</clipPath>
</defs>
</svg>
