<svg width="500" height="650" viewBox="0 0 500 650" fill="none" xmlns="http://www.w3.org/2000/svg">
<g clip-path="url(#clip0_31_2)">
<path d="M125.533 631H108.482V568.246H125.489C132.11 568.246 136.915 569.359 139.903 571.586C142.921 573.812 144.473 577.489 144.561 582.616C144.708 584.784 144.693 586.688 144.517 588.329C144.341 591.054 143.58 593.222 142.232 594.833C140.884 596.415 138.804 597.572 135.992 598.305V600.106C138.892 600.839 141.016 602.025 142.364 603.666C143.741 605.277 144.488 607.489 144.605 610.302C144.81 612.382 144.81 614.491 144.605 616.63C144.4 621.728 142.818 625.404 139.859 627.66C136.9 629.887 132.125 631 125.533 631ZM118.765 577.562V594.481H125.445C128.404 594.481 130.587 593.925 131.993 592.812C133.399 591.698 134.146 590.102 134.234 588.021C134.498 586.029 134.498 584.037 134.234 582.045C134.146 580.58 133.399 579.467 131.993 578.705C130.587 577.943 128.419 577.562 125.489 577.562H118.765ZM118.765 603.798V621.684H125.533C131.246 621.684 134.175 619.955 134.322 616.498C134.498 614.594 134.498 612.689 134.322 610.785C134.263 608.236 133.516 606.435 132.081 605.38C130.645 604.325 128.316 603.798 125.093 603.798H118.765ZM181.89 631H153.018V568.246H163.301V621.684H181.89V631ZM219.57 631H188.853V568.246H219.57V577.562H199.136V594.481H218.384V603.798H199.136V621.684H219.57V631ZM237.124 631H227.148V568.246H243.013L248.11 588.241L254.263 621.684H256.68L254.79 594.306L254.043 568.246H264.019V631H247.495L242.09 610.082L237.08 577.519H234.575L236.289 607.006L237.124 631ZM290.669 631H273.003V568.246H290.757C297.173 568.246 301.816 569.418 304.687 571.762C307.558 574.105 309.053 577.943 309.17 583.275C309.346 589.105 309.433 594.54 309.433 599.579C309.433 604.589 309.346 610.023 309.17 615.883C309.053 621.273 307.558 625.141 304.687 627.484C301.816 629.828 297.143 631 290.669 631ZM283.286 577.562V621.684H290.669C296.059 621.684 298.799 620.16 298.887 617.113C299.267 605.453 299.267 593.764 298.887 582.045C298.799 579.057 296.089 577.562 290.757 577.562H283.286ZM348.696 631H317.978V568.246H348.696V577.562H328.261V594.481H347.509V603.798H328.261V621.684H348.696V631ZM366.557 631H356.274V568.246H373.105C379.404 568.246 383.959 569.359 386.772 571.586C389.614 573.812 391.152 577.489 391.386 582.616C391.591 585.048 391.679 587.128 391.65 588.856C391.65 590.585 391.562 592.621 391.386 594.965C391.24 598.217 390.493 600.868 389.145 602.919C387.797 604.94 385.732 606.479 382.949 607.533L393.188 631H382.202L373.149 609.291H366.557V631ZM366.557 577.562V599.975H372.973C375.756 599.975 377.778 599.594 379.037 598.832C380.297 598.07 380.986 596.972 381.103 595.536C381.484 591.024 381.484 586.527 381.103 582.045C380.986 580.58 380.297 579.467 379.037 578.705C377.778 577.943 375.8 577.562 373.105 577.562H366.557Z" fill="#764274"/>
<path d="M234.408 16.9626C249.545 2.03011 273.922 2.19566 288.854 17.3328L433.652 164.115C440.786 170.334 447.445 177.082 453.566 184.302L453.779 184.517C455.651 186.415 457.285 188.457 458.683 190.608C483.325 222.345 498 262.209 498 305.501C498 409.054 414.053 493.001 310.5 493.001C217.191 493.001 139.804 424.841 125.405 335.594L68.2236 392.777C53.1885 407.812 28.8115 407.812 13.7764 392.777C-1.25876 377.742 -1.25864 353.365 13.7764 338.33L156.104 196.001H67.5C46.2372 196.001 29.0003 178.763 29 157.501C29 136.238 46.237 119.001 67.5 119.001H280.987L234.038 71.4089C219.106 56.2718 219.271 31.8952 234.408 16.9626ZM311.5 194C249.92 194 200 243.92 200 305.5C200 367.08 249.92 417 311.5 417C373.08 417 423 367.079 423 305.5C423 243.92 373.08 194 311.5 194Z" fill="#9E779D"/>
<circle cx="311.5" cy="305.5" r="67.5" fill="#764274"/>
</g>
<defs>
<clipPath id="clip0_31_2">
<rect width="500" height="650" fill="white"/>
</clipPath>
</defs>
</svg>
