<svg width="508" height="450" viewBox="0 0 508 450" fill="none" xmlns="http://www.w3.org/2000/svg">
<path d="M29 35.25C24.6701 36.4663 20.5176 38.6627 17.4559 42.0429C14.3942 45.4196 12.6742 49.6469 12.6742 54C12.6742 58.3531 14.3942 62.5804 17.4559 65.9571C20.5176 69.3373 24.6701 71.5337 29 72.75C29 72.75 29 72.75 29 72.75C36.5 74.8333 44 76.8125 51.5 78.6875C119 95.5625 186.5 104 254 104C321.5 104 389 95.5625 456.5 78.6875C464 76.8125 471.5 74.8333 479 72.75C483.33 71.5337 487.482 69.3373 490.544 65.9571C493.606 62.5804 495.326 58.3531 495.326 54C495.326 49.6469 493.606 45.4196 490.544 42.0429C487.482 38.6627 483.33 36.4663 479 35.25C471.5 33.1667 464 31.1875 456.5 29.3125C389 12.4375 321.5 4 254 4C186.5 4 119 12.4375 51.5 29.3125C44 31.1875 36.5 33.1667 29 35.25Z" fill="#764274"/>
<path d="M29 379.25C24.6701 380.466 20.5176 382.663 17.4559 386.043C14.3942 389.42 12.6742 393.647 12.6742 398C12.6742 402.353 14.3942 406.58 17.4559 409.957C20.5176 413.337 24.6701 415.534 29 416.75C29 416.75 29 416.75 29 416.75C36.5 418.833 44 420.813 51.5 422.688C119 439.563 186.5 448 254 448C321.5 448 389 439.563 456.5 422.688C464 420.813 471.5 418.833 479 416.75C483.33 415.534 487.482 413.337 490.544 409.957C493.606 406.58 495.326 402.353 495.326 398C495.326 393.647 493.606 389.42 490.544 386.043C487.482 382.663 483.33 380.466 479 379.25C471.5 377.167 464 375.187 456.5 373.312C389 356.437 321.5 348 254 348C186.5 348 119 356.437 51.5 373.312C44 375.187 36.5 377.167 29 379.25Z" fill="#764274"/>
<path d="M29 207.25C24.6701 208.466 20.5176 210.663 17.4559 214.043C14.3942 217.42 12.6742 221.647 12.6742 226C12.6742 230.353 14.3942 234.58 17.4559 237.957C20.5176 241.337 24.6701 243.534 29 244.75C29 244.75 29 244.75 29 244.75C36.5 246.833 44 248.813 51.5 250.688C119 267.563 186.5 276 254 276C321.5 276 389 267.563 456.5 250.688C464 248.813 471.5 246.833 479 244.75C483.33 243.534 487.482 241.337 490.544 237.957C493.606 234.58 495.326 230.353 495.326 226C495.326 221.647 493.606 217.42 490.544 214.043C487.482 210.663 483.33 208.466 479 207.25C471.5 205.167 464 203.187 456.5 201.312C389 184.437 321.5 176 254 176C186.5 176 119 184.437 51.5 201.312C44 203.187 36.5 205.167 29 207.25Z" fill="#764274"/>
</svg>
