<svg width="500" height="650" viewBox="0 0 500 650" fill="none" xmlns="http://www.w3.org/2000/svg">
<g clip-path="url(#clip0_42_312)">
<path d="M204.585 623.703C198.228 623.703 193.687 622.575 190.962 620.319C188.267 618.034 186.846 614.255 186.699 608.981C186.582 605.7 186.494 601.979 186.436 597.819C186.406 593.659 186.406 589.499 186.436 585.339C186.494 581.179 186.582 577.443 186.699 574.133C186.817 569.592 188.267 566.018 191.05 563.41C193.833 560.803 198.33 559.499 204.541 559.499C210.781 559.499 215.308 560.642 218.12 562.927C220.962 565.212 222.471 568.977 222.647 574.221C222.705 575.539 222.72 577.077 222.691 578.835C222.661 580.563 222.617 582.102 222.559 583.449H212.276C212.334 581.896 212.363 580.036 212.363 577.868C212.393 575.671 212.378 573.811 212.32 572.287C212.29 570.91 211.66 569.885 210.43 569.211C209.199 568.508 207.237 568.156 204.541 568.156C201.963 568.156 200.073 568.508 198.872 569.211C197.7 569.885 197.071 570.91 196.983 572.287C196.836 576.213 196.734 580.417 196.675 584.899C196.616 589.353 196.616 593.82 196.675 598.303C196.734 602.785 196.836 606.989 196.983 610.915C197.071 612.292 197.715 613.332 198.916 614.035C200.117 614.738 202.007 615.09 204.585 615.09C207.427 615.09 209.492 614.738 210.781 614.035C212.071 613.332 212.744 612.292 212.803 610.915C212.862 609.362 212.876 607.487 212.847 605.29C212.818 603.063 212.774 601.174 212.715 599.621H223.042C223.13 601.057 223.174 602.609 223.174 604.279C223.203 605.949 223.174 607.517 223.086 608.981C222.881 614.255 221.343 618.034 218.472 620.319C215.63 622.575 211.001 623.703 204.585 623.703ZM253.56 611.442H245.737V598.435H231.367V590.568H245.737V577.561H253.56V590.568H267.842V598.435H253.56V611.442ZM298.974 611.442H291.152V598.435H276.782V590.568H291.152V577.561H298.974V590.568H313.257V598.435H298.974V611.442Z" fill="#764274"/>
<path d="M223.5 8.5041C242 -3.49572 261.5 -1.99567 276 8.0041C302.5 23.5041 408.167 83.5041 458 114.004C468.5 119.504 477 131.004 477 150.504C477 172.508 477.167 304.337 477 367.504C477.5 373.837 474 388.801 456 399.504C437.5 410.504 324.5 474.504 270.5 506.004C262.5 511.504 247.4 515.604 229 506.004C210.599 496.404 97.3332 430.337 43 398.504C38.4998 395.867 23 387.504 23 358.504V149.004C23.0001 138.004 28.5001 121.504 40.5 114.004C54.1743 105.458 168.334 40.3373 223.5 8.5041ZM250 103.504C166.053 103.504 98.0002 171.557 98 255.504C98 339.451 166.053 407.504 250 407.504C306.452 407.504 355.714 376.729 381.93 331.042L381.5 331.504L315.634 293.477C302.375 316.219 277.723 331.504 249.5 331.504C207.25 331.504 173 297.254 173 255.004C173 212.754 207.25 178.504 249.5 178.504C278.331 178.504 303.436 194.454 316.476 218.011L316.5 218.004L382.041 180.163C355.854 134.368 306.532 103.504 250 103.504ZM368 229.504V247.004H350.5V264.004H368V281.504H385V264.004H402.5V247.004H385V229.504H368ZM431.5 229.504V247.004H414V264.004H431.5V281.504H448.5V264.004H466V247.004H448.5V229.504H431.5Z" fill="#9E779D"/>
<path d="M471.982 127.991C475.098 133.847 477 141.281 477 150.504C477 172.508 477.167 304.337 477 367.504C477.5 373.837 474 388.801 456 399.504C437.5 410.504 324.5 474.504 270.5 506.004C262.5 511.504 247.4 515.604 229 506.004C210.6 496.404 97.3334 430.338 43 398.504C40.2651 396.902 33.4668 393.184 28.5547 384.004L118.626 332C144.978 377.159 193.944 407.504 250 407.504C306.452 407.504 355.714 376.729 381.93 331.042L381.5 331.504L315.634 293.477C302.375 316.219 277.723 331.504 249.5 331.504C221.631 331.504 197.245 316.601 183.871 294.331L316.374 217.831C316.408 217.891 316.442 217.951 316.476 218.011L316.5 218.004L382.041 180.163C382.006 180.102 381.97 180.041 381.935 179.98L471.982 127.991ZM368 229.504V247.004H350.5V264.004H368V281.504H385V264.004H402.5V247.004H385V229.504H368ZM431.5 229.504V247.004H414V264.004H431.5V281.504H448.5V264.004H466V247.004H448.5V229.504H431.5Z" fill="#764274"/>
</g>
<defs>
<clipPath id="clip0_42_312">
<rect width="500" height="650" fill="white"/>
</clipPath>
</defs>
</svg>
