<svg width="500" height="650" viewBox="0 0 500 650" fill="none" xmlns="http://www.w3.org/2000/svg">
<path d="M162.378 623.703C156.021 623.703 151.48 622.575 148.755 620.319C146.06 618.034 144.639 614.255 144.493 608.981C144.375 605.7 144.288 601.979 144.229 597.819C144.2 593.659 144.2 589.499 144.229 585.339C144.288 581.179 144.375 577.443 144.493 574.133C144.61 569.592 146.06 566.018 148.843 563.41C151.626 560.803 156.123 559.499 162.334 559.499C168.575 559.499 173.101 560.642 175.913 562.927C178.755 565.212 180.264 568.977 180.44 574.221C180.498 575.539 180.513 577.077 180.484 578.835C180.454 580.563 180.411 582.102 180.352 583.449H170.069C170.127 581.896 170.157 580.036 170.157 577.868C170.186 575.671 170.171 573.811 170.113 572.287C170.083 570.91 169.454 569.885 168.223 569.211C166.993 568.508 165.03 568.156 162.334 568.156C159.756 568.156 157.867 568.508 156.665 569.211C155.494 569.885 154.864 570.91 154.776 572.287C154.629 576.213 154.527 580.417 154.468 584.899C154.41 589.353 154.41 593.82 154.468 598.303C154.527 602.785 154.629 606.989 154.776 610.915C154.864 612.292 155.508 613.332 156.709 614.035C157.911 614.738 159.8 615.09 162.378 615.09C165.22 615.09 167.286 614.738 168.575 614.035C169.864 613.332 170.538 612.292 170.596 610.915C170.655 609.362 170.669 607.487 170.64 605.29C170.611 603.063 170.567 601.174 170.508 599.621H180.835C180.923 601.057 180.967 602.609 180.967 604.279C180.996 605.949 180.967 607.517 180.879 608.981C180.674 614.255 179.136 618.034 176.265 620.319C173.423 622.575 168.794 623.703 162.378 623.703ZM197.378 623H186.787L197.422 560.246H215.264L225.899 623H215.352L213.111 608.938H199.663L197.378 623ZM202.52 585.778L200.586 599.621H212.144L210.254 585.778L207.969 569.562H204.805L202.52 585.778ZM242.441 623H232.466V560.246H248.33L253.428 580.241L259.58 613.684H261.997L260.107 586.306L259.36 560.246H269.336V623H252.812L247.407 602.082L242.397 569.519H239.893L241.606 599.006L242.441 623ZM304.16 623H286.318L275.947 560.246H286.714L291.943 592.326L293.701 613.684H296.689L298.447 592.326L303.764 560.246H314.487L304.16 623ZM329.316 623H318.725L329.36 560.246H347.202L357.837 623H347.29L345.048 608.938H331.601L329.316 623ZM334.458 585.778L332.524 599.621H344.082L342.192 585.778L339.907 569.562H336.743L334.458 585.778Z" fill="#764274"/>
<path d="M250 5.99951C386.414 5.9996 497 116.585 497 253C497 389.414 386.414 499.999 250 500C113.586 500 3 389.414 3 253C3.00021 116.585 113.586 5.99951 250 5.99951ZM289.5 89.9995C279.962 89.2467 273.27 89.3191 265 90.5005C251 92.5005 239.273 95.6666 226.5 100.5C208 107.5 193 121 191 122.5C188.999 124.001 163.5 147.001 154 165.5C144.5 184 131.098 206.532 129 240.5C128.595 247.063 125.038 289 134 314C143.5 340.5 148 350.501 160.5 364C170.5 374.8 183 382.834 188 385.5C194.5 388.667 210.8 395.4 224 397C240.5 399 252.5 397.5 264 395.5C275.5 393.5 291.5 387.5 301.5 381.5C311.5 375.501 320 367.5 328 359.5C336 351.501 345 339.001 347.5 335C350 331.001 356 319.001 357.5 314C359 309.001 360.5 300.5 359.5 295C358.7 290.6 354.833 291.834 353 293C352.167 294.167 349.5 298.001 345.5 304C340.5 311.501 332 327.501 325 334.5C318 341.5 313 346.001 306 351C299 356 285.5 363.5 281 364C276.5 364.501 271.5 369 254.5 368.5C237.5 368 235 366 232.5 365C230 364 217 360 212 355C207 350.001 199.5 344.5 195 336C191.4 329.201 186.833 318.501 185 314C183 307.167 178.9 291.601 178.5 284C178 274.503 178 264.005 178 250.509V250.5C178 243.499 182.5 217.999 185 207.5C187.454 197.193 193 180.5 199 170.5C205 160.501 211.5 150.5 217.5 144C223.5 137.501 230 131.5 238 126.5C246 121.501 253.5 116.5 266 113.5C278.5 110.501 279 111.5 284 111.5C289 111.5 297.5 113.5 301.5 116C305.5 118.5 310 123.001 313 128.5C316 134 317 140.501 318 145C319 149.5 317.5 156.001 317 161.5C316.5 167.001 311.5 176.001 309.5 181C307.5 186 304.471 190.601 303.5 194C302.5 197.5 302 201.001 303.5 203C306.5 206.5 313 206.3 317 205.5C322 204.501 331.5 199 339 191.5C346.5 184.001 354.5 167.501 355 159C355.5 150.501 356.043 141.148 353.5 132.5C351 124.001 345.5 113.5 338 107.5C324.5 96.7005 309.5 92.9995 305 91.9995C299.942 90.8755 297.5 90.6309 289.5 89.9995Z" fill="#9E779D"/>
</svg>
