<svg width="500" height="650" viewBox="0 0 500 650" fill="none" xmlns="http://www.w3.org/2000/svg">
<g clip-path="url(#clip0_42_272)">
<path d="M206.167 623.703C199.81 623.703 195.269 622.575 192.544 620.319C189.849 618.034 188.428 614.255 188.281 608.981C188.164 605.7 188.076 601.979 188.018 597.819C187.988 593.659 187.988 589.499 188.018 585.339C188.076 581.179 188.164 577.443 188.281 574.133C188.399 569.592 189.849 566.018 192.632 563.41C195.415 560.803 199.912 559.499 206.123 559.499C212.363 559.499 216.89 560.642 219.702 562.927C222.544 565.212 224.053 568.977 224.229 574.221C224.287 575.539 224.302 577.077 224.273 578.835C224.243 580.563 224.199 582.102 224.141 583.449H213.858C213.916 581.896 213.946 580.036 213.946 577.868C213.975 575.671 213.96 573.811 213.902 572.287C213.872 570.91 213.242 569.885 212.012 569.211C210.781 568.508 208.819 568.156 206.123 568.156C203.545 568.156 201.655 568.508 200.454 569.211C199.282 569.885 198.653 570.91 198.565 572.287C198.418 576.213 198.316 580.417 198.257 584.899C198.198 589.353 198.198 593.82 198.257 598.303C198.316 602.785 198.418 606.989 198.565 610.915C198.653 612.292 199.297 613.332 200.498 614.035C201.699 614.738 203.589 615.09 206.167 615.09C209.009 615.09 211.074 614.738 212.363 614.035C213.653 613.332 214.326 612.292 214.385 610.915C214.444 609.362 214.458 607.487 214.429 605.29C214.4 603.063 214.356 601.174 214.297 599.621H224.624C224.712 601.057 224.756 602.609 224.756 604.279C224.785 605.949 224.756 607.517 224.668 608.981C224.463 614.255 222.925 618.034 220.054 620.319C217.212 622.575 212.583 623.703 206.167 623.703ZM250.483 623.703C244.038 623.703 239.424 622.575 236.641 620.319C233.857 618.034 232.349 614.24 232.114 608.938C231.88 605.891 231.953 602.771 232.334 599.577H242.178C242.002 601.599 241.899 603.576 241.87 605.51C241.87 607.443 241.973 609.245 242.178 610.915C242.324 612.263 243.027 613.303 244.287 614.035C245.576 614.738 247.627 615.09 250.439 615.09C253.223 615.09 255.215 614.738 256.416 614.035C257.646 613.303 258.35 612.263 258.525 610.915C258.73 609.392 258.818 607.956 258.789 606.608C258.76 605.231 258.672 603.781 258.525 602.258C258.379 600.998 257.91 599.885 257.119 598.918C256.328 597.951 254.761 597.307 252.417 596.984L245.122 595.446C241.665 594.772 238.999 593.806 237.124 592.546C235.278 591.286 233.975 589.704 233.213 587.8C232.451 585.896 232.012 583.654 231.895 581.076C231.836 579.846 231.807 578.674 231.807 577.561C231.836 576.447 231.88 575.334 231.938 574.221C232.114 568.977 233.594 565.212 236.377 562.927C239.16 560.642 243.848 559.499 250.439 559.499C256.65 559.499 261.147 560.642 263.931 562.927C266.714 565.212 268.208 568.977 268.413 574.221C268.501 575.393 268.516 576.843 268.457 578.571C268.428 580.271 268.369 581.896 268.281 583.449H258.35C258.613 579.611 258.643 575.876 258.438 572.243C258.203 569.489 255.522 568.112 250.396 568.112C247.612 568.112 245.605 568.464 244.375 569.167C243.145 569.87 242.441 570.896 242.266 572.243C242.061 573.708 241.958 575.188 241.958 576.682C241.987 578.146 242.09 579.611 242.266 581.076C242.412 582.365 242.881 583.479 243.672 584.416C244.463 585.324 246.104 585.939 248.594 586.262L255.317 587.536C258.892 588.181 261.631 589.162 263.535 590.48C265.439 591.799 266.772 593.439 267.534 595.402C268.325 597.336 268.779 599.621 268.896 602.258C268.984 603.43 269.014 604.558 268.984 605.642C268.955 606.726 268.896 607.824 268.809 608.938C268.574 614.24 267.051 618.034 264.238 620.319C261.455 622.575 256.87 623.703 250.483 623.703ZM294.316 623.703C287.871 623.703 283.257 622.575 280.473 620.319C277.69 618.034 276.181 614.24 275.947 608.938C275.713 605.891 275.786 602.771 276.167 599.577H286.011C285.835 601.599 285.732 603.576 285.703 605.51C285.703 607.443 285.805 609.245 286.011 610.915C286.157 612.263 286.86 613.303 288.12 614.035C289.409 614.738 291.46 615.09 294.272 615.09C297.055 615.09 299.048 614.738 300.249 614.035C301.479 613.303 302.182 612.263 302.358 610.915C302.563 609.392 302.651 607.956 302.622 606.608C302.593 605.231 302.505 603.781 302.358 602.258C302.212 600.998 301.743 599.885 300.952 598.918C300.161 597.951 298.594 597.307 296.25 596.984L288.955 595.446C285.498 594.772 282.832 593.806 280.957 592.546C279.111 591.286 277.807 589.704 277.046 587.8C276.284 585.896 275.845 583.654 275.727 581.076C275.669 579.846 275.639 578.674 275.639 577.561C275.669 576.447 275.713 575.334 275.771 574.221C275.947 568.977 277.427 565.212 280.21 562.927C282.993 560.642 287.68 559.499 294.272 559.499C300.483 559.499 304.98 560.642 307.763 562.927C310.547 565.212 312.041 568.977 312.246 574.221C312.334 575.393 312.348 576.843 312.29 578.571C312.261 580.271 312.202 581.896 312.114 583.449H302.182C302.446 579.611 302.475 575.876 302.27 572.243C302.036 569.489 299.355 568.112 294.228 568.112C291.445 568.112 289.438 568.464 288.208 569.167C286.977 569.87 286.274 570.896 286.098 572.243C285.893 573.708 285.791 575.188 285.791 576.682C285.82 578.146 285.923 579.611 286.098 581.076C286.245 582.365 286.714 583.479 287.505 584.416C288.296 585.324 289.936 585.939 292.427 586.262L299.15 587.536C302.724 588.181 305.464 589.162 307.368 590.48C309.272 591.799 310.605 593.439 311.367 595.402C312.158 597.336 312.612 599.621 312.729 602.258C312.817 603.43 312.846 604.558 312.817 605.642C312.788 606.726 312.729 607.824 312.641 608.938C312.407 614.24 310.884 618.034 308.071 620.319C305.288 622.575 300.703 623.703 294.316 623.703Z" fill="#764274"/>
<path d="M430.5 450L250 500L69.5 450L29.5 0H471L430.5 450ZM115.5 146H257.5L120.5 203.5L125 257H316.5L313 328L250 346L188.5 331L185 287H129L136 372L250 405.5L363.5 372.5L378 203.5H250L383 146.5L388.5 92H109L115.5 146Z" fill="#764274"/>
<path d="M396 421.5L250 461.5V405.5L363.5 372.5L378 203.5H250L383 146.5L388.5 92H250V37H430L396 421.5ZM316.5 257L313 328L250 346V257H316.5ZM257.5 146L250 149.147V146H257.5Z" fill="#9E779D"/>
</g>
<defs>
<clipPath id="clip0_42_272">
<rect width="500" height="650" fill="white"/>
</clipPath>
</defs>
</svg>
