<svg width="500" height="650" viewBox="0 0 500 650" fill="none" xmlns="http://www.w3.org/2000/svg">
<g clip-path="url(#clip0_45_408)">
<path d="M165.235 623H154.952V560.246H184.175V569.562H165.235V586.481H183.121V595.798H165.235V623ZM203.047 623H192.764V560.246H203.047V623ZM231.323 623.703C224.878 623.703 220.278 622.575 217.524 620.319C214.8 618.034 213.35 614.24 213.174 608.938C213.027 605.686 212.925 602.009 212.866 597.907C212.837 593.806 212.837 589.733 212.866 585.69C212.925 581.618 213.027 578 213.174 574.836C213.35 569.27 214.814 565.329 217.568 563.015C220.352 560.671 224.922 559.499 231.279 559.499C237.344 559.499 241.768 560.642 244.551 562.927C247.334 565.212 248.872 568.977 249.165 574.221C249.312 575.568 249.37 577.106 249.341 578.835C249.341 580.534 249.282 582.072 249.165 583.449H238.882C238.999 581.867 239.058 580.007 239.058 577.868C239.087 575.7 239.028 573.825 238.882 572.243C238.647 569.489 236.113 568.112 231.279 568.112C226.211 568.112 223.604 569.489 223.457 572.243C223.252 576.169 223.12 580.373 223.062 584.855C223.003 589.338 223.003 593.82 223.062 598.303C223.149 602.785 223.281 606.989 223.457 610.915C223.516 612.263 224.175 613.303 225.435 614.035C226.694 614.738 228.657 615.09 231.323 615.09C236.509 615.09 239.263 613.698 239.585 610.915C239.644 609.772 239.673 608.337 239.673 606.608C239.673 604.851 239.644 603.415 239.585 602.302H231.719V593.117H249.648C249.766 595.432 249.824 597.995 249.824 600.808C249.824 603.62 249.736 606.33 249.561 608.938C249.355 614.24 247.832 618.034 244.99 620.319C242.148 622.575 237.593 623.703 231.323 623.703ZM268.432 623H258.149V560.246H274.453L278.672 584.372L279.155 613.64H280.781L281.221 584.372L285.483 560.246H301.743V623H291.416V603.884L293.437 569.562H291.723L289.438 604.543L285.351 622.912H274.585L270.542 604.543L268.125 569.562H266.543L268.432 603.884V623ZM318.901 623H308.31L318.945 560.246H336.787L347.422 623H336.875L334.633 608.938H321.186L318.901 623ZM324.043 585.778L322.109 599.621H333.667L331.777 585.778L329.492 569.562H326.328L324.043 585.778Z" fill="#764274"/>
<path d="M450 0C477.614 6.4426e-06 500 22.3858 500 50V450C500 477.614 477.614 500 450 500H50C22.3858 500 4.02715e-07 477.614 0 450V50C6.44344e-06 22.3858 22.3858 4.02663e-07 50 0H450ZM74 24C46.3858 24 24 46.3858 24 74V426L24.0039 426.646C24.35 453.963 46.6016 476 74 476H426L426.646 475.996C453.748 475.653 475.653 453.748 475.996 426.646L476 426V74C476 46.6016 453.963 24.35 426.646 24.0039L426 24H74ZM426 44C442.569 44 456 57.4315 456 74V426C456 442.569 442.569 456 426 456H74C57.4315 456 44 442.569 44 426V74C44 57.4315 57.4315 44 74 44H426ZM188 81.9902C159.56 87.1703 138 112.066 138 142C138 163.329 148.948 182.097 165.529 193C148.948 203.903 138 222.672 138 244C138 265.328 148.948 284.096 165.529 294.999C148.948 305.902 138 324.671 138 346C138 379.689 165.311 407 199 407C228.582 407 253.243 385.946 258.819 358H260V289.166C270.831 299.004 285.215 305 301 305C334.689 305 362 277.689 362 244C362 222.672 351.054 203.901 334.474 192.997C351.053 182.094 362 163.328 362 142C362 112.066 340.44 87.1703 312 81.9902V81H188V81.9902ZM240 346.827L239.97 347.614C239.126 369.506 221.103 387 199 387C176.356 387 158 368.644 158 346C158 323.626 175.924 305.436 198.192 305.008L198.599 305H240V346.827ZM240 285H210V284.795L199.808 284.991C199.514 284.997 199.249 285 199 285C176.356 285 158 266.644 158 244C158 221.356 176.356 203 199 203C199.267 203 199.536 203.003 199.808 203.008L210 203.204V203H240V285ZM301 203C323.644 203 342 221.356 342 244C342 266.644 323.644 285 301 285C278.356 285 260 266.644 260 244C260 221.356 278.356 203 301 203ZM240 183H198.649L198.192 182.991C175.923 182.563 158 164.374 158 142C158 119.626 175.924 101.436 198.192 101.008L198.599 101H240V183ZM301.808 101.008C324.076 101.436 342 119.626 342 142C342 164.374 324.077 182.563 301.808 182.991L301.351 183H260V101H301.401L301.808 101.008Z" fill="#9E779D"/>
<path d="M240 305V346.827L239.97 347.614C239.126 369.506 221.103 387 199 387C176.356 387 158 368.644 158 346C158 323.626 175.924 305.436 198.192 305.008L198.599 305H240ZM240 203V285H210V284.795L199.808 284.991C199.514 284.997 199.249 285 199 285C176.356 285 158 266.644 158 244C158 221.356 176.356 203 199 203C199.267 203 199.536 203.003 199.808 203.008L210 203.204V203H240ZM301 203C323.644 203 342 221.356 342 244C342 266.644 323.644 285 301 285C278.356 285 260 266.644 260 244C260 221.356 278.356 203 301 203ZM240 101V183H198.649L198.192 182.991C175.923 182.563 158 164.374 158 142C158 119.626 175.924 101.436 198.192 101.008L198.599 101H240ZM301.401 101L301.808 101.008C324.076 101.436 342 119.626 342 142C342 164.374 324.077 182.563 301.808 182.991L301.351 183H260V101H301.401Z" fill="#764274"/>
</g>
<defs>
<clipPath id="clip0_45_408">
<rect width="500" height="650" fill="white"/>
</clipPath>
</defs>
</svg>
