<svg width="500" height="650" viewBox="0 0 500 650" fill="none" xmlns="http://www.w3.org/2000/svg">
<g clip-path="url(#clip0_42_208)">
<path d="M178.889 623H168.606V560.246H178.889V586.481H194.842V560.246H205.125V623H194.842V595.798H178.889V623ZM233.709 623H223.425V569.562H211.472V560.246H245.618V569.562H233.709V623ZM262.248 623H251.965V560.246H268.269L272.488 584.372L272.971 613.64H274.597L275.037 584.372L279.299 560.246H295.559V623H285.232V603.884L287.253 569.562H285.539L283.254 604.543L279.167 622.912H268.401L264.358 604.543L261.941 569.562H260.359L262.248 603.884V623ZM333.371 623H304.499V560.246H314.782V613.684H333.371V623Z" fill="#764274"/>
<path d="M430.5 450L250 500L69.5 450L29.5 0H471L430.5 450ZM112 92L116 147.5L126 259H318.001L311.501 330L250.001 347.5L188 330.5L184 286.5H129L137 373.5L250.001 404.5L363.001 373L378 204H177L172 147.5H383L387.5 92H112Z" fill="#764274"/>
<path d="M396 421.5L250 461.5V404.499L250.001 404.5L363.001 373L378 204H250V147.5H383L387.5 92H250V37H430L396 421.5ZM318.001 259L311.501 330L250.001 347.5L250 347.499V259H318.001Z" fill="#9E779D"/>
</g>
<defs>
<clipPath id="clip0_42_208">
<rect width="500" height="650" fill="white"/>
</clipPath>
</defs>
</svg>
