<svg width="500" height="650" viewBox="0 0 500 650" fill="none" xmlns="http://www.w3.org/2000/svg">
<g clip-path="url(#clip0_42_292)">
<path d="M66.9906 623.703C60.6332 623.703 56.1654 622.575 53.5873 620.319C51.0385 618.034 49.6762 614.24 49.5004 608.938C49.3539 605.832 49.3539 602.712 49.5004 599.577H59.2563C59.1391 601.13 59.0805 603.02 59.0805 605.246C59.0805 607.473 59.1391 609.362 59.2563 610.915C59.3734 612.263 60.018 613.303 61.1898 614.035C62.391 614.738 64.3246 615.09 66.9906 615.09C69.6566 615.09 71.5609 614.738 72.7035 614.035C73.8754 613.303 74.4613 612.263 74.4613 610.915V560.246H84.7445V608.938C84.7445 614.24 83.3969 618.034 80.7016 620.319C78.0356 622.575 73.4652 623.703 66.9906 623.703ZM101.243 623H90.6525L101.287 560.246H119.129L129.764 623H119.217L116.976 608.938H103.529L101.243 623ZM106.385 585.778L104.451 599.621H116.009L114.119 585.778L111.834 569.562H108.67L106.385 585.778ZM162.171 623H144.329L133.958 560.246H144.725L149.954 592.326L151.712 613.684H154.7L156.458 592.326L161.775 560.246H172.498L162.171 623ZM187.327 623H176.736L187.371 560.246H205.213L215.847 623H205.301L203.059 608.938H189.612L187.327 623ZM192.469 585.778L190.535 599.621H202.093L200.203 585.778L197.918 569.562H194.754L192.469 585.778ZM239.949 623.703C233.504 623.703 228.889 622.575 226.106 620.319C223.323 618.034 221.814 614.24 221.58 608.938C221.345 605.891 221.419 602.771 221.799 599.577H231.643C231.467 601.599 231.365 603.576 231.336 605.51C231.336 607.443 231.438 609.245 231.643 610.915C231.79 612.263 232.493 613.303 233.753 614.035C235.042 614.738 237.092 615.09 239.905 615.09C242.688 615.09 244.68 614.738 245.881 614.035C247.112 613.303 247.815 612.263 247.991 610.915C248.196 609.392 248.284 607.956 248.255 606.608C248.225 605.231 248.137 603.781 247.991 602.258C247.844 600.998 247.376 599.885 246.585 598.918C245.794 597.951 244.226 597.307 241.882 596.984L234.588 595.446C231.13 594.772 228.464 593.806 226.589 592.546C224.744 591.286 223.44 589.704 222.678 587.8C221.917 585.896 221.477 583.654 221.36 581.076C221.301 579.846 221.272 578.674 221.272 577.561C221.301 576.447 221.345 575.334 221.404 574.221C221.58 568.977 223.059 565.212 225.842 562.927C228.626 560.642 233.313 559.499 239.905 559.499C246.116 559.499 250.613 560.642 253.396 562.927C256.179 565.212 257.673 568.977 257.879 574.221C257.966 575.393 257.981 576.843 257.922 578.571C257.893 580.271 257.835 581.896 257.747 583.449H247.815C248.079 579.611 248.108 575.876 247.903 572.243C247.669 569.489 244.988 568.112 239.861 568.112C237.078 568.112 235.071 568.464 233.84 569.167C232.61 569.87 231.907 570.896 231.731 572.243C231.526 573.708 231.423 575.188 231.423 576.682C231.453 578.146 231.555 579.611 231.731 581.076C231.878 582.365 232.346 583.479 233.137 584.416C233.928 585.324 235.569 585.939 238.059 586.262L244.783 587.536C248.357 588.181 251.096 589.162 253.001 590.48C254.905 591.799 256.238 593.439 257 595.402C257.791 597.336 258.245 599.621 258.362 602.258C258.45 603.43 258.479 604.558 258.45 605.642C258.421 606.726 258.362 607.824 258.274 608.938C258.04 614.24 256.516 618.034 253.704 620.319C250.921 622.575 246.336 623.703 239.949 623.703ZM284.089 623.703C277.732 623.703 273.191 622.575 270.466 620.319C267.771 618.034 266.35 614.255 266.204 608.981C266.086 605.7 265.998 601.979 265.94 597.819C265.911 593.659 265.911 589.499 265.94 585.339C265.998 581.179 266.086 577.443 266.204 574.133C266.321 569.592 267.771 566.018 270.554 563.41C273.337 560.803 277.834 559.499 284.045 559.499C290.286 559.499 294.812 560.642 297.624 562.927C300.466 565.212 301.975 568.977 302.151 574.221C302.209 575.539 302.224 577.077 302.195 578.835C302.165 580.563 302.121 582.102 302.063 583.449H291.78C291.838 581.896 291.868 580.036 291.868 577.868C291.897 575.671 291.882 573.811 291.824 572.287C291.794 570.91 291.164 569.885 289.934 569.211C288.704 568.508 286.741 568.156 284.045 568.156C281.467 568.156 279.578 568.508 278.376 569.211C277.204 569.885 276.575 570.91 276.487 572.287C276.34 576.213 276.238 580.417 276.179 584.899C276.121 589.353 276.121 593.82 276.179 598.303C276.238 602.785 276.34 606.989 276.487 610.915C276.575 612.292 277.219 613.332 278.42 614.035C279.621 614.738 281.511 615.09 284.089 615.09C286.931 615.09 288.996 614.738 290.286 614.035C291.575 613.332 292.248 612.292 292.307 610.915C292.366 609.362 292.38 607.487 292.351 605.29C292.322 603.063 292.278 601.174 292.219 599.621H302.546C302.634 601.057 302.678 602.609 302.678 604.279C302.707 605.949 302.678 607.517 302.59 608.981C302.385 614.255 300.847 618.034 297.976 620.319C295.134 622.575 290.505 623.703 284.089 623.703ZM321.155 623H310.871V560.246H327.702C334.001 560.246 338.557 561.359 341.369 563.586C344.211 565.812 345.749 569.489 345.984 574.616C346.189 577.048 346.277 579.128 346.247 580.856C346.247 582.585 346.159 584.621 345.984 586.965C345.837 590.217 345.09 592.868 343.742 594.919C342.395 596.94 340.329 598.479 337.546 599.533L347.785 623H336.799L327.746 601.291H321.155V623ZM321.155 569.562V591.975H327.571C330.354 591.975 332.375 591.594 333.635 590.832C334.895 590.07 335.583 588.972 335.7 587.536C336.081 583.024 336.081 578.527 335.7 574.045C335.583 572.58 334.895 571.467 333.635 570.705C332.375 569.943 330.398 569.562 327.702 569.562H321.155ZM366.525 623H356.242V560.246H366.525V623ZM386.935 623H376.652V560.246H393.659C400.016 560.246 404.616 561.359 407.458 563.586C410.3 565.812 411.852 569.489 412.116 574.616C412.321 577.048 412.424 579.289 412.424 581.34C412.424 583.361 412.321 585.544 412.116 587.888C411.852 592.985 410.285 596.647 407.414 598.874C404.572 601.101 399.943 602.214 393.527 602.214H386.935V623ZM386.935 569.562V592.897H393.527C396.369 592.897 398.42 592.517 399.68 591.755C400.969 590.993 401.672 589.895 401.789 588.459C401.994 586.291 402.096 583.889 402.096 581.252C402.096 578.586 401.994 576.184 401.789 574.045C401.672 572.58 400.983 571.467 399.723 570.705C398.464 569.943 396.442 569.562 393.659 569.562H386.935ZM439.469 623H429.186V569.562H417.233V560.246H451.379V569.562H439.469V623Z" fill="#764274"/>
<path d="M430.5 450L250 500L69.5 450L29.5 0H471L430.5 450ZM141.5 91L126 259H317L311 330L250 348L188 330L184.5 286.5H128L136.5 373L250 405.5L363.5 373L379 204H184.5L187 147H320L322 179.5H378.5L366 91H141.5Z" fill="#764274"/>
<path d="M396 421.5L250 461.5V405.5L363.5 373L379 204H250V147H320L322 179.5H378.5L366 91H250V37H430L396 421.5ZM317 259L311 330L250 348V259H317Z" fill="#9E779D"/>
</g>
<defs>
<clipPath id="clip0_42_292">
<rect width="500" height="650" fill="white"/>
</clipPath>
</defs>
</svg>
