<svg width="500" height="650" viewBox="0 0 500 650" fill="none" xmlns="http://www.w3.org/2000/svg">
<g clip-path="url(#clip0_15_2)">
<path d="M170.772 623H160.225V560.246H171.167L171.036 575.407L169.322 589.777H171.431L176.924 575.144L183.077 560.246H194.371L182.154 586.438L195.293 623H184.746L175.342 598.215L170.772 607.487V623ZM212.056 623H201.773V560.246H218.604C224.903 560.246 229.458 561.359 232.271 563.586C235.113 565.812 236.651 569.489 236.885 574.616C237.09 577.048 237.178 579.128 237.149 580.856C237.149 582.585 237.061 584.621 236.885 586.965C236.738 590.217 235.991 592.868 234.644 594.919C233.296 596.94 231.231 598.479 228.447 599.533L238.687 623H227.7L218.648 601.291H212.056V623ZM212.056 569.562V591.975H218.472C221.255 591.975 223.277 591.594 224.536 590.832C225.796 590.07 226.485 588.972 226.602 587.536C226.983 583.024 226.983 578.527 226.602 574.045C226.485 572.58 225.796 571.467 224.536 570.705C223.277 569.943 221.299 569.562 218.604 569.562H212.056ZM257.427 623H247.144V560.246H257.427V623ZM287.153 623H276.87V569.562H264.917V560.246H299.062V569.562H287.153V623ZM313.628 623H303.037L313.672 560.246H331.513L342.148 623H331.601L329.36 608.938H315.913L313.628 623ZM318.769 585.778L316.836 599.621H328.393L326.504 585.778L324.218 569.562H321.054L318.769 585.778Z" fill="#D937E5"/>
<path d="M250 0C388.071 0 500 112.824 500 252C500 391.176 388.071 504 250 504C111.929 504 0 391.176 0 252C0 194.821 18.8927 142.09 50.7285 99.8037C54.4035 103.678 58.3223 107.789 62.4268 112.075C33.2662 151.102 16 199.536 16 252.001C16.0003 381.235 120.766 486.001 250 486.001C379.234 486.001 484 381.235 484 252.001C484 122.766 379.235 18 250 18C202.115 18 157.59 32.3838 120.509 57.0654C117.251 54.9909 113.932 52.8754 110.615 50.7676C108.615 49.4963 106.612 48.2266 104.622 46.9648C145.586 17.4009 195.777 0 250 0ZM250 38.001C368.189 38.001 464 133.812 464 252.001C464 370.19 368.189 466.001 250 466.001C131.811 466.001 36.0003 370.19 36 252.001C36 205.212 51.0161 161.929 76.4922 126.71C76.5016 126.72 76.5111 126.729 76.5205 126.739C103.965 155.204 135.74 187.746 158.911 211.837L163.427 216.538C168.177 221.538 176.027 229.231 184.678 236.635C192.992 243.751 203.586 251.95 213.475 256.514C221.088 260.028 230.102 263.211 238.488 265.826C235.188 269.031 232.515 272.633 230.413 276.193C225.026 285.322 222.398 295.775 222.492 302.802C222.347 304.965 221.392 308.493 219.056 311.33C216.966 313.866 213.281 316.501 205.999 316.501C196.282 316.501 187.004 312.093 178.713 305.833C170.476 299.613 164.076 292.223 160.148 287.56C157.568 284.496 151.6 275.165 144.719 263.788C138.054 252.768 131.073 240.746 126.688 233.05C123.953 228.252 117.846 226.579 113.048 229.312C108.25 232.047 106.576 238.154 109.311 242.952C113.758 250.756 120.828 262.934 127.604 274.139C134.165 284.986 141.03 295.906 144.85 300.442C148.922 305.279 156.523 314.139 166.66 321.794C176.744 329.408 190.217 336.501 205.999 336.501C219.115 336.501 228.515 331.302 234.492 324.047C240.138 317.194 242.248 309.122 242.49 303.426L242.507 303.041L242.493 302.656C242.402 300.012 243.732 292.974 247.637 286.358C251.407 279.971 256.512 275.683 263.075 274.942L295.956 298.298C296.825 305.284 298.926 312.178 303.671 319.56C306.401 323.806 311.73 331.628 315.89 337.888C318.084 341.19 320.026 344.162 321.442 346.44C321.988 347.318 322.393 347.992 322.673 348.477C322.731 348.649 322.783 348.811 322.833 348.956C322.999 349.442 323.278 350.233 323.386 350.545C323.512 350.909 323.614 351.214 323.698 351.473C323.533 351.763 323.347 352.08 323.139 352.418C322.65 353.211 322.135 353.976 321.683 354.61C321.261 355.2 321.008 355.517 320.972 355.563C315.553 361.967 314.707 371.072 318.852 378.365C319.766 379.975 320.882 381.421 322.153 382.682C309.676 391.102 293.653 396.248 283.251 397.028C243.948 399.975 222.992 396.876 205.29 388.468C196.502 384.294 185.853 376.452 175.104 367.457C164.465 358.553 154.462 349.157 146.738 342.112C142.658 338.391 136.332 338.682 132.61 342.762C128.889 346.842 129.18 353.168 133.26 356.89C140.703 363.679 151.2 373.532 162.269 382.795C173.228 391.966 185.496 401.208 196.708 406.534C219.005 417.125 244.051 420.024 284.747 416.973C300.156 415.817 322.579 408.131 338.713 395.336C343.799 391.302 347.941 388.424 351.662 385.859C355.302 383.351 358.92 380.89 362.325 377.996C363.016 377.409 363.693 376.808 364.359 376.189C364.455 376.114 364.551 376.04 364.645 375.966C370.399 371.366 375.322 366.172 377.884 362.649L378.112 362.348C380.787 358.934 392.896 346.268 397.903 323.734C399.249 317.679 399.712 309.887 399.582 303.258C399.514 299.801 399.277 296.142 398.777 292.693C398.343 289.697 397.481 285.091 395.343 280.814V280.813L394.58 279.143C393.314 276.368 390.691 270.742 388.097 266.385C384.406 260.188 377.831 250.915 367.097 245.781C359.406 242.103 351.846 239.623 343.891 239.377C336.852 233.105 328.561 225.699 321.366 219.162C316.57 214.804 312.381 210.943 309.419 208.108C309.329 208.022 309.24 207.936 309.153 207.853C308.3 204.131 306.878 200.206 304.577 195.604C297.053 180.557 280.889 162.197 265.422 148.86L263.928 147.585C248.674 134.715 225.566 121.609 221.061 118.974L220.415 118.589C216.738 116.291 162.153 83.1537 157.475 80.5547H157.474C157.364 80.4828 156.145 79.7324 153.299 77.9346C150.534 76.1884 146.786 73.8062 142.362 70.9883C141.319 70.3238 140.239 69.6351 139.126 68.9258C171.462 49.3004 209.411 38.001 250 38.001ZM121.105 81.1572C135.255 90.1774 146.341 97.2486 147.762 98.0381C151.929 100.353 206.108 133.232 209.815 135.549C213.52 137.864 236.211 150.368 251.03 162.871C265.849 175.374 280.606 192.383 286.688 204.549C290.161 211.495 289.931 214.274 290.394 217.053C290.697 218.86 321.27 246.009 337.044 260.062C343.262 258.494 349.332 259.455 358.468 263.824C369.118 268.918 374.676 284.2 377.454 289.758C380.154 295.159 380.129 311.523 378.38 319.396C376.974 325.724 374.958 330.857 372.777 335.076C369.617 335.469 366.696 337.361 365.12 340.402C359.168 351.896 355.158 357.297 351.295 361.019C346.811 364.475 341.457 367.613 336.239 368.482C337.938 366.475 342.537 359.962 343.648 355.517C345.037 349.96 342.259 344.402 341.333 341.16C340.405 337.916 325.776 316.961 320.494 308.744C316.327 302.261 315.4 296.704 315.4 287.905C315.4 287.795 315.402 287.686 315.402 287.578L266.312 252.711C257.514 250.704 236.304 245.023 221.855 238.354C207.407 231.686 186.507 211.804 177.862 202.696C153.978 177.787 118.502 141.487 89.0684 110.938C98.6996 99.9594 109.437 89.9745 121.105 81.1572ZM113.077 288.628C111.49 283.338 105.916 280.336 100.626 281.923C95.3366 283.51 92.3344 289.084 93.9209 294.374C94.998 297.964 97.9902 306.844 101.555 313.973C105.191 321.246 111.126 329.452 113.605 332.641C116.996 337 123.279 337.785 127.639 334.395C131.998 331.004 132.783 324.721 129.393 320.361C127.206 317.549 122.207 310.556 119.443 305.029C116.608 299.359 114 291.705 113.077 288.628ZM192.321 260.453C184.591 255.785 175.564 256.57 172.161 262.206C168.759 267.842 172.268 276.196 179.998 280.863C187.729 285.531 196.754 284.745 200.157 279.109C203.56 273.473 200.052 265.121 192.321 260.453ZM404.563 174.083C402.952 168.801 397.362 165.825 392.08 167.437L370.082 174.148C364.8 175.76 361.824 181.35 363.436 186.632C365.047 191.914 370.637 194.89 375.919 193.278L397.917 186.565C403.199 184.954 406.175 179.365 404.563 174.083ZM374.915 128.038C370.979 124.165 364.647 124.216 360.773 128.151L344.641 144.545C340.767 148.481 340.818 154.813 344.754 158.687C348.69 162.56 355.022 162.509 358.896 158.573L375.028 142.18C378.902 138.243 378.851 131.912 374.915 128.038ZM332.964 98.3545C327.889 96.1756 322.008 98.5233 319.829 103.598L310.754 124.731C308.575 129.806 310.923 135.687 315.997 137.866C321.072 140.045 326.953 137.697 329.132 132.623L338.206 111.489C340.385 106.415 338.038 100.534 332.964 98.3545ZM286.627 81.5391C281.152 80.8146 276.126 84.6659 275.401 90.1406L272.383 112.941C271.658 118.416 275.51 123.443 280.984 124.168C286.459 124.893 291.485 121.041 292.21 115.566L295.229 92.7646C295.953 87.29 292.102 82.2638 286.627 81.5391ZM87.9648 60.0908C92.9365 63.2364 98.0963 66.5094 103.207 69.7598C93.1408 77.8782 83.7615 86.8141 75.1689 96.4658C71.0452 92.1549 67.1308 88.0432 63.4873 84.1934C71.0925 75.6106 79.2717 67.5558 87.9648 60.0908Z" fill="#EDB0F1"/>
<path d="M250 38C368.189 38.0001 464 133.811 464 252C464 370.189 368.189 466 250 466C131.811 466 36 370.189 36 252C36.0002 205.211 51.0163 161.929 76.4922 126.71C76.5016 126.72 76.5111 126.73 76.5205 126.739C103.965 155.204 135.74 187.746 158.911 211.837L163.427 216.538C168.177 221.538 176.027 229.231 184.678 236.635C192.992 243.751 203.586 251.95 213.475 256.514C221.088 260.028 230.101 263.211 238.487 265.826C235.187 269.031 232.514 272.632 230.412 276.192C225.025 285.32 222.398 295.774 222.491 302.801C222.346 304.964 221.392 308.492 219.055 311.329C216.965 313.865 213.281 316.5 205.998 316.5C196.281 316.5 187.002 312.092 178.712 305.832C170.475 299.612 164.075 292.222 160.147 287.559C157.567 284.494 151.598 275.163 144.718 263.787C138.053 252.767 131.072 240.745 126.687 233.049C123.952 228.252 117.845 226.578 113.047 229.312C108.249 232.046 106.576 238.153 109.31 242.951C113.757 250.755 120.827 262.933 127.604 274.138C134.164 284.984 141.028 295.904 144.849 300.441C148.921 305.278 156.522 314.138 166.659 321.793C176.743 329.407 190.216 336.5 205.998 336.5C219.115 336.5 228.514 331.302 234.491 324.046C240.137 317.192 242.247 309.121 242.489 303.425L242.506 303.04L242.492 302.655C242.402 300.011 243.731 292.973 247.636 286.357C251.406 279.97 256.511 275.682 263.074 274.941L295.956 298.298C296.825 305.284 298.926 312.178 303.671 319.56C306.401 323.806 311.73 331.628 315.89 337.888C318.084 341.19 320.026 344.162 321.442 346.44C321.988 347.318 322.393 347.992 322.673 348.477C322.731 348.649 322.783 348.811 322.833 348.956C322.999 349.442 323.278 350.233 323.386 350.545C323.512 350.909 323.614 351.214 323.698 351.473C323.533 351.763 323.347 352.08 323.139 352.418C322.65 353.211 322.135 353.976 321.683 354.61C321.262 355.199 321.009 355.516 320.972 355.563C315.554 361.967 314.707 371.073 318.852 378.365C319.766 379.975 320.882 381.421 322.153 382.682C309.676 391.102 293.653 396.247 283.251 397.027C243.948 399.974 222.992 396.875 205.29 388.467C196.502 384.293 185.853 376.451 175.104 367.456C164.465 358.553 154.461 349.155 146.738 342.111C142.658 338.391 136.332 338.681 132.61 342.761C128.889 346.841 129.18 353.167 133.26 356.889C140.703 363.677 151.2 373.531 162.269 382.794C173.228 391.965 185.496 401.207 196.708 406.533C219.005 417.124 244.051 420.023 284.747 416.972C300.157 415.816 322.58 408.13 338.713 395.335C343.799 391.301 347.941 388.424 351.662 385.858C355.302 383.35 358.92 380.889 362.325 377.995C363.014 377.409 363.69 376.81 364.354 376.193C364.451 376.117 364.55 376.042 364.645 375.966C370.399 371.366 375.322 366.172 377.884 362.649L378.112 362.348C380.788 358.934 392.896 346.268 397.903 323.734C399.249 317.679 399.712 309.887 399.582 303.258C399.514 299.801 399.277 296.142 398.777 292.693C398.343 289.697 397.481 285.091 395.343 280.814V280.813L394.58 279.143C393.314 276.368 390.691 270.742 388.097 266.385C384.406 260.188 377.831 250.915 367.097 245.781C359.407 242.103 351.845 239.623 343.891 239.377C336.852 233.105 328.561 225.699 321.366 219.162C316.57 214.804 312.381 210.943 309.419 208.108C309.329 208.022 309.24 207.936 309.153 207.853C308.3 204.131 306.878 200.206 304.577 195.604C297.053 180.557 280.889 162.197 265.422 148.86L263.928 147.585C248.674 134.715 225.566 121.61 221.061 118.974L220.415 118.589C216.737 116.29 162.154 83.1542 157.475 80.5547H157.474C157.363 80.4822 156.144 79.7314 153.299 77.9346C150.534 76.1884 146.786 73.8062 142.362 70.9883C141.319 70.3238 140.239 69.6342 139.126 68.9248C171.462 49.2997 209.412 38 250 38ZM38.9365 41.54C42.1461 38.0426 49.4025 37.5579 52.3662 38.2988C55.1835 39.0041 106.393 71.7916 132.654 88.5146C134.667 89.7966 136.534 90.9842 138.221 92.0557C141.499 94.1379 144.099 95.781 145.778 96.8271C145.975 96.9498 146.159 97.0649 146.33 97.1709C147.045 97.6135 147.532 97.9088 147.763 98.0371C151.932 100.353 206.112 133.232 209.816 135.548C213.522 137.864 236.213 150.367 251.031 162.87C265.85 175.374 280.607 192.382 286.689 204.548C290.163 211.494 289.931 214.273 290.394 217.052C290.698 218.86 321.271 246.008 337.045 260.062C337.292 259.999 337.539 259.943 337.785 259.889C338.275 259.781 338.764 259.69 339.255 259.614C339.348 259.6 339.44 259.586 339.533 259.573C339.843 259.53 340.154 259.492 340.466 259.462C340.525 259.456 340.584 259.451 340.643 259.445C345.714 258.991 351.091 260.295 358.469 263.823C369.12 268.917 374.677 284.2 377.455 289.757C380.155 295.158 380.13 311.522 378.381 319.395C378.297 319.773 378.209 320.147 378.121 320.517C378.112 320.557 378.102 320.597 378.093 320.637C376.815 325.949 375.106 330.389 373.252 334.137C373.213 334.216 373.173 334.294 373.134 334.372C369.009 342.619 364.188 347.478 361.71 350.885C360.27 352.865 356.085 357.41 350.768 361.417C350.652 361.504 350.537 361.593 350.42 361.68C350.223 361.826 350.022 361.97 349.822 362.114C349.73 362.181 349.638 362.249 349.545 362.315C349.387 362.428 349.228 362.538 349.069 362.649C348.91 362.76 348.751 362.872 348.59 362.981C348.455 363.073 348.319 363.163 348.184 363.254C348.006 363.373 347.828 363.491 347.648 363.607C347.512 363.696 347.375 363.782 347.238 363.869C347.059 363.983 346.88 364.096 346.7 364.207C346.461 364.355 346.22 364.501 345.979 364.644C345.942 364.665 345.906 364.686 345.87 364.707C345.586 364.874 345.301 365.038 345.014 365.197C344.992 365.209 344.971 365.221 344.949 365.232C344.612 365.419 344.273 365.601 343.933 365.776C342.967 366.274 341.989 366.724 341.005 367.115C340.944 367.14 340.882 367.163 340.82 367.187C340.722 367.225 340.624 367.263 340.525 367.3C340.454 367.327 340.383 367.353 340.312 367.379C340.204 367.418 340.097 367.457 339.99 367.495C339.934 367.515 339.877 367.534 339.82 367.554C339.695 367.597 339.57 367.64 339.445 367.681C339.409 367.693 339.372 367.705 339.335 367.717C339.197 367.761 339.058 367.805 338.92 367.847C338.883 367.858 338.845 367.869 338.808 367.88C338.691 367.914 338.575 367.948 338.459 367.98C338.398 367.998 338.338 368.015 338.277 368.031C338.134 368.07 337.991 368.108 337.848 368.144C337.831 368.148 337.814 368.153 337.797 368.157C337.277 368.286 336.758 368.396 336.239 368.482L336.24 368.481L336.591 368.054C336.817 367.771 337.073 367.437 337.353 367.062C337.962 366.244 338.677 365.227 339.406 364.106C339.712 363.637 340.02 363.149 340.324 362.649C341.358 360.951 342.343 359.122 343.015 357.433C343.086 357.254 343.153 357.078 343.217 356.903C343.391 356.425 343.537 355.96 343.648 355.517C345.037 349.96 342.259 344.402 341.333 341.16C340.404 337.915 325.776 316.961 320.494 308.744C316.327 302.261 315.4 296.704 315.4 287.905C315.4 287.795 315.402 287.686 315.402 287.578L266.312 252.711C257.514 250.704 236.304 245.023 221.855 238.354C207.407 231.686 186.507 211.804 177.862 202.696C162.467 186.641 142.259 165.85 121.954 144.92C118.801 141.67 115.644 138.418 112.504 135.178C110.309 132.913 108.122 130.653 105.948 128.407C104.423 126.831 102.903 125.263 101.393 123.701C99.2343 121.469 97.0959 119.253 94.9795 117.061C93.2139 115.232 91.463 113.421 89.7344 111.627C89.5125 111.397 89.2905 111.167 89.0693 110.938V110.937C60.8648 81.663 38.209 57.671 36.6211 54.0439C35.447 51.3607 35.7929 44.9658 38.9365 41.54ZM113.077 288.627C111.49 283.338 105.915 280.336 100.626 281.922C95.3367 283.509 92.335 289.084 93.9209 294.373C94.9979 297.963 97.9903 306.842 101.555 313.972C105.191 321.244 111.125 329.451 113.605 332.64C116.996 336.999 123.279 337.784 127.639 334.394C131.997 331.003 132.783 324.72 129.393 320.36C127.205 317.548 122.207 310.555 119.443 305.028C116.608 299.358 114 291.703 113.077 288.627ZM192.321 260.452C184.591 255.785 175.564 256.57 172.161 262.205C168.758 267.841 172.267 276.194 179.997 280.862C187.728 285.53 196.754 284.745 200.157 279.109C203.56 273.473 200.052 265.12 192.321 260.452ZM404.563 174.082C402.951 168.8 397.362 165.824 392.08 167.436L370.081 174.148C364.799 175.76 361.825 181.349 363.436 186.631C365.047 191.913 370.636 194.889 375.918 193.277L397.917 186.565C403.199 184.954 406.175 179.364 404.563 174.082ZM374.914 128.037C370.978 124.165 364.646 124.216 360.772 128.151L344.641 144.544C340.767 148.48 340.818 154.813 344.754 158.687C348.69 162.56 355.022 162.509 358.896 158.572L375.028 142.18C378.902 138.243 378.85 131.911 374.914 128.037ZM332.963 98.3545C327.888 96.176 322.008 98.5235 319.829 103.598L310.754 124.731C308.575 129.806 310.923 135.686 315.997 137.865C321.072 140.044 326.952 137.697 329.131 132.622L338.206 111.488C340.385 106.414 338.037 100.534 332.963 98.3545ZM286.627 81.5391C281.152 80.8148 276.126 84.6654 275.4 90.1396L272.383 112.941C271.658 118.416 275.51 123.442 280.984 124.167C286.459 124.892 291.485 121.04 292.21 115.565L295.228 92.7646C295.952 87.29 292.102 82.264 286.627 81.5391Z" fill="#EDB0F1"/>
</g>
<defs>
<clipPath id="clip0_15_2">
<rect width="500" height="650" fill="white"/>
</clipPath>
</defs>
</svg>
