<svg width="500" height="650" viewBox="0 0 500 650" fill="none" xmlns="http://www.w3.org/2000/svg">
<g clip-path="url(#clip0_31_28)">
<path d="M173.88 631H163.596V568.246H179.9L184.119 592.372L184.602 621.64H186.228L186.668 592.372L190.93 568.246H207.19V631H196.863V611.884L198.885 577.562H197.171L194.886 612.543L190.799 630.912H180.032L175.989 612.543L173.572 577.562H171.99L173.88 611.884V631ZM224.348 631H213.757L224.392 568.246H242.234L252.869 631H242.322L240.081 616.938H226.633L224.348 631ZM229.49 593.778L227.556 607.621H239.114L237.224 593.778L234.939 577.562H231.775L229.49 593.778ZM281.409 631H271.038V615.707L256.887 568.246H267.478L272.224 583.935L275.08 604.018H277.497L280.266 583.935L285.012 568.246H295.603L281.409 615.707V631ZM310.256 631H299.665L310.3 568.246H328.142L338.777 631H328.23L325.988 616.938H312.541L310.256 631ZM315.398 593.778L313.464 607.621H325.022L323.132 593.778L320.847 577.562H317.683L315.398 593.778Z" fill="#764274"/>
<path d="M481 490H85C71.1929 490 60 478.807 60 465V76H481V490ZM178 451H196.5L200.226 435H222.445L226.5 451H245.107L223 378H199L178 451ZM260.5 421.033V451H279.5V420.627L302 378.5H283.5L270.432 408.119L257.5 378.5H238.5L260.5 421.033ZM295 451H313.5L317.226 435H339.445L343.5 451H362.107L340 378H316L295 451ZM218.896 421H203.485L210.865 389.31L218.896 421ZM335.896 421H320.485L327.865 389.31L335.896 421ZM172 77V268H213V142.365L246.5 267.5H260.521L260.5 267.576H290.999L323 145.655V268H368V77H323V77.0762H310.811L270.208 230.816L231.808 77H172Z" fill="#764274"/>
<path d="M422 0C435.807 0 447 11.1929 447 25V344H94L19 389.5V44L94 0H422ZM172 268H213V142.365L246.5 267.5H260.521L260.5 267.576H290.999L323 145.655V268H368V77H323V77.0762H310.811L270.208 230.816L231.808 77H172V268Z" fill="#9E779D"/>
</g>
<defs>
<clipPath id="clip0_31_28">
<rect width="500" height="650" fill="white"/>
</clipPath>
</defs>
</svg>
