<svg width="500" height="650" viewBox="0 0 500 650" fill="none" xmlns="http://www.w3.org/2000/svg">
<g clip-path="url(#clip0_19_41)">
<path d="M450 0C477.614 0 500 22.3858 500 50V450C500 477.614 477.614 500 450 500H50C22.3858 500 0 477.614 0 450V50C6.1849e-06 22.3858 22.3858 0 50 0H450ZM74 24C46.3858 24 24 46.3858 24 74V426C24 453.614 46.3858 476 74 476H426C453.614 476 476 453.614 476 426V74C476 46.3858 453.614 24 426 24H74ZM426 44C442.569 44 456 57.4315 456 74V426C456 442.569 442.569 456 426 456H74C57.4315 456 44 442.569 44 426V74C44 57.4315 57.4315 44 74 44H426ZM354.745 175.99C344.447 175.622 341.122 175.504 328 176C310.73 178.5 302 184.5 294 193C286.399 201.076 284.19 207.741 281.5 218.5C280.5 222.5 281.356 234.5 282 237.5C283.778 245.782 285.767 250.339 291 257C296.313 263.763 300.855 266.213 308 271C313.97 275 325.5 279.541 332 283.5C336.81 286.43 341 289 343.5 291.5C346.993 294.993 347.735 298.066 347.5 303C347.165 310.032 344.779 313.815 338.5 317C335 318.776 330 318.5 325.5 318.5C319 318.5 310 317 302 314.5C293.328 311.79 280.5 302 280.5 302V340.5C280.5 340.5 289.754 346.25 296 348.5C303.46 351.187 308.102 351.302 316 352C324.169 352.721 333.5 352.535 337.5 352C346.565 350.788 351.599 349.608 359.5 345C367.253 340.478 371.206 336.588 376 329C379.602 323.298 381.497 319.575 383 313C384.503 306.425 384.89 297.769 383.5 288.5C382 278.5 379.948 275.303 375 268.5C370.192 261.888 359 255 359 255C359 255 347.646 248.687 340.5 245C334.524 241.916 328.5 239 326 237.5C321.11 234.566 318.31 232.55 317 227C316.292 224 316.5 218 318 216C319.34 214.213 320.702 210.412 325.5 209C329.625 207.786 334.2 208 338.5 208C346.5 208 352 209.5 357.5 210.5C367 212.227 377 219 377 219V183.5C377 183.5 369 176.5 355 176L354.745 175.99ZM122 348H158V267.02C166.27 266.976 175.562 266.776 186 266.5C236 263.5 261 230.5 260 192.5C263 145.5 227 118 187.5 118C176.482 118 166.693 118.009 158 118.094V118H122V348ZM184.543 152C205.445 152 224.495 167.131 222.907 192.991C223.436 213.899 210.207 232.056 183.749 233.707C173.051 234.001 164.629 234.142 158 233.792V152.299C164.849 152.02 173.536 152 184.543 152Z" fill="#9E779D"/>
<path d="M66.6707 631H56.3875V568.246H73.3943C79.7518 568.246 84.3514 569.359 87.1932 571.586C90.035 573.812 91.5877 577.489 91.8514 582.616C92.0564 585.048 92.159 587.289 92.159 589.34C92.159 591.361 92.0564 593.544 91.8514 595.888C91.5877 600.985 90.0203 604.647 87.1492 606.874C84.3074 609.101 79.6785 610.214 73.2625 610.214H66.6707V631ZM66.6707 577.562V600.897H73.2625C76.1043 600.897 78.1551 600.517 79.4148 599.755C80.7039 598.993 81.407 597.895 81.5242 596.459C81.7293 594.291 81.8318 591.889 81.8318 589.252C81.8318 586.586 81.7293 584.184 81.5242 582.045C81.407 580.58 80.7186 579.467 79.4588 578.705C78.199 577.943 76.1775 577.562 73.3943 577.562H66.6707ZM109.888 631H99.6051V568.246H109.888V594.481H125.84V568.246H136.124V631H125.84V603.798H109.888V631ZM163.477 631.703C157.002 631.703 152.344 630.575 149.502 628.319C146.661 626.034 145.166 622.255 145.02 616.981C144.815 611.415 144.712 605.629 144.712 599.623C144.712 593.588 144.815 587.787 145.02 582.221C145.166 576.977 146.661 573.212 149.502 570.927C152.344 568.642 157.002 567.499 163.477 567.499C169.981 567.499 174.639 568.642 177.452 570.927C180.293 573.212 181.788 576.977 181.934 582.221C182.139 587.846 182.242 593.661 182.242 599.667C182.242 605.644 182.139 611.415 181.934 616.981C181.788 622.255 180.293 626.034 177.452 628.319C174.639 630.575 169.981 631.703 163.477 631.703ZM163.477 623.09C166.348 623.09 168.413 622.738 169.673 622.035C170.933 621.332 171.592 620.307 171.651 618.959C171.885 615.092 172.032 610.902 172.09 606.391C172.149 601.85 172.134 597.309 172.046 592.768C171.988 588.227 171.856 584.052 171.651 580.243C171.592 578.866 170.918 577.841 169.629 577.167C168.34 576.464 166.289 576.112 163.477 576.112C160.694 576.112 158.658 576.464 157.369 577.167C156.079 577.841 155.391 578.866 155.303 580.243C155.069 584.052 154.922 588.227 154.864 592.768C154.805 597.309 154.82 601.85 154.908 606.391C154.996 610.902 155.127 615.092 155.303 618.959C155.391 620.307 156.079 621.332 157.369 622.035C158.658 622.738 160.694 623.09 163.477 623.09ZM210.386 631H200.103V577.562H188.15V568.246H222.295V577.562H210.386V631ZM247.012 631.703C240.537 631.703 235.879 630.575 233.037 628.319C230.195 626.034 228.701 622.255 228.555 616.981C228.35 611.415 228.247 605.629 228.247 599.623C228.247 593.588 228.35 587.787 228.555 582.221C228.701 576.977 230.195 573.212 233.037 570.927C235.879 568.642 240.537 567.499 247.012 567.499C253.516 567.499 258.174 568.642 260.986 570.927C263.828 573.212 265.322 576.977 265.469 582.221C265.674 587.846 265.776 593.661 265.776 599.667C265.776 605.644 265.674 611.415 265.469 616.981C265.322 622.255 263.828 626.034 260.986 628.319C258.174 630.575 253.516 631.703 247.012 631.703ZM247.012 623.09C249.883 623.09 251.948 622.738 253.208 622.035C254.468 621.332 255.127 620.307 255.186 618.959C255.42 615.092 255.566 610.902 255.625 606.391C255.684 601.85 255.669 597.309 255.581 592.768C255.522 588.227 255.391 584.052 255.186 580.243C255.127 578.866 254.453 577.841 253.164 577.167C251.875 576.464 249.824 576.112 247.012 576.112C244.229 576.112 242.192 576.464 240.903 577.167C239.614 577.841 238.926 578.866 238.838 580.243C238.604 584.052 238.457 588.227 238.398 592.768C238.34 597.309 238.354 601.85 238.442 606.391C238.53 610.902 238.662 615.092 238.838 618.959C238.926 620.307 239.614 621.332 240.903 622.035C242.192 622.738 244.229 623.09 247.012 623.09ZM291.855 631.703C285.41 631.703 280.796 630.575 278.013 628.319C275.229 626.034 273.721 622.24 273.486 616.938C273.252 613.891 273.325 610.771 273.706 607.577H283.55C283.374 609.599 283.271 611.576 283.242 613.51C283.242 615.443 283.345 617.245 283.55 618.915C283.696 620.263 284.399 621.303 285.659 622.035C286.948 622.738 288.999 623.09 291.811 623.09C294.595 623.09 296.587 622.738 297.788 622.035C299.018 621.303 299.721 620.263 299.897 618.915C300.102 617.392 300.19 615.956 300.161 614.608C300.132 613.231 300.044 611.781 299.897 610.258C299.751 608.998 299.282 607.885 298.491 606.918C297.7 605.951 296.133 605.307 293.789 604.984L286.494 603.446C283.037 602.772 280.371 601.806 278.496 600.546C276.65 599.286 275.346 597.704 274.585 595.8C273.823 593.896 273.384 591.654 273.266 589.076C273.208 587.846 273.179 586.674 273.179 585.561C273.208 584.447 273.252 583.334 273.31 582.221C273.486 576.977 274.966 573.212 277.749 570.927C280.532 568.642 285.22 567.499 291.811 567.499C298.022 567.499 302.519 568.642 305.303 570.927C308.086 573.212 309.58 576.977 309.785 582.221C309.873 583.393 309.888 584.843 309.829 586.571C309.8 588.271 309.741 589.896 309.653 591.449H299.721C299.985 587.611 300.014 583.876 299.809 580.243C299.575 577.489 296.894 576.112 291.767 576.112C288.984 576.112 286.977 576.464 285.747 577.167C284.516 577.87 283.813 578.896 283.638 580.243C283.432 581.708 283.33 583.188 283.33 584.682C283.359 586.146 283.462 587.611 283.638 589.076C283.784 590.365 284.253 591.479 285.044 592.416C285.835 593.324 287.475 593.939 289.966 594.262L296.689 595.536C300.263 596.181 303.003 597.162 304.907 598.48C306.811 599.799 308.144 601.439 308.906 603.402C309.697 605.336 310.151 607.621 310.268 610.258C310.356 611.43 310.386 612.558 310.356 613.642C310.327 614.726 310.268 615.824 310.18 616.938C309.946 622.24 308.423 626.034 305.61 628.319C302.827 630.575 298.242 631.703 291.855 631.703ZM328.437 631H318.154V568.246H328.437V594.481H344.389V568.246H354.672V631H344.389V603.798H328.437V631ZM382.026 631.703C375.551 631.703 370.893 630.575 368.051 628.319C365.209 626.034 363.715 622.255 363.569 616.981C363.364 611.415 363.261 605.629 363.261 599.623C363.261 593.588 363.364 587.787 363.569 582.221C363.715 576.977 365.209 573.212 368.051 570.927C370.893 568.642 375.551 567.499 382.026 567.499C388.53 567.499 393.188 568.642 396 570.927C398.842 573.212 400.336 576.977 400.483 582.221C400.688 587.846 400.79 593.661 400.79 599.667C400.79 605.644 400.688 611.415 400.483 616.981C400.336 622.255 398.842 626.034 396 628.319C393.188 630.575 388.53 631.703 382.026 631.703ZM382.026 623.09C384.897 623.09 386.962 622.738 388.222 622.035C389.482 621.332 390.141 620.307 390.2 618.959C390.434 615.092 390.58 610.902 390.639 606.391C390.698 601.85 390.683 597.309 390.595 592.768C390.536 588.227 390.405 584.052 390.2 580.243C390.141 578.866 389.467 577.841 388.178 577.167C386.889 576.464 384.838 576.112 382.026 576.112C379.243 576.112 377.206 576.464 375.917 577.167C374.628 577.841 373.94 578.866 373.852 580.243C373.618 584.052 373.471 588.227 373.412 592.768C373.354 597.309 373.369 601.85 373.456 606.391C373.544 610.902 373.676 615.092 373.852 618.959C373.94 620.307 374.628 621.332 375.917 622.035C377.206 622.738 379.243 623.09 382.026 623.09ZM419.618 631H409.335V568.246H426.342C432.699 568.246 437.299 569.359 440.141 571.586C442.983 573.812 444.535 577.489 444.799 582.616C445.004 585.048 445.107 587.289 445.107 589.34C445.107 591.361 445.004 593.544 444.799 595.888C444.535 600.985 442.968 604.647 440.097 606.874C437.255 609.101 432.626 610.214 426.21 610.214H419.618V631ZM419.618 577.562V600.897H426.21C429.052 600.897 431.103 600.517 432.362 599.755C433.652 598.993 434.355 597.895 434.472 596.459C434.677 594.291 434.779 591.889 434.779 589.252C434.779 586.586 434.677 584.184 434.472 582.045C434.355 580.58 433.666 579.467 432.406 578.705C431.147 577.943 429.125 577.562 426.342 577.562H419.618Z" fill="#764274"/>
</g>
<defs>
<clipPath id="clip0_19_41">
<rect width="500" height="650" fill="white"/>
</clipPath>
</defs>
</svg>
