<svg width="500" height="650" viewBox="0 0 500 650" fill="none" xmlns="http://www.w3.org/2000/svg">
<g clip-path="url(#clip0_26_81)">
<path d="M74.9324 631H64.6492V568.246H81.6561C88.0135 568.246 92.6131 569.359 95.4549 571.586C98.2967 573.812 99.8494 577.489 100.113 582.616C100.318 585.048 100.421 587.289 100.421 589.34C100.421 591.361 100.318 593.544 100.113 595.888C99.8494 600.985 98.282 604.647 95.4109 606.874C92.5691 609.101 87.9402 610.214 81.5242 610.214H74.9324V631ZM74.9324 577.562V600.897H81.5242C84.366 600.897 86.4168 600.517 87.6766 599.755C88.9656 598.993 89.6687 597.895 89.7859 596.459C89.991 594.291 90.0936 591.889 90.0936 589.252C90.0936 586.586 89.991 584.184 89.7859 582.045C89.6687 580.58 88.9803 579.467 87.7205 578.705C86.4607 577.943 84.4393 577.562 81.6561 577.562H74.9324ZM118.15 631H107.867V568.246H124.698C130.997 568.246 135.552 569.359 138.365 571.586C141.207 573.812 142.745 577.489 142.979 582.616C143.184 585.048 143.272 587.128 143.243 588.856C143.243 590.585 143.155 592.621 142.979 594.965C142.833 598.217 142.086 600.868 140.738 602.919C139.39 604.94 137.325 606.479 134.542 607.533L144.781 631H133.795L124.742 609.291H118.15V631ZM118.15 577.562V599.975H124.566C127.349 599.975 129.371 599.594 130.63 598.832C131.89 598.07 132.579 596.972 132.696 595.536C133.077 591.024 133.077 586.527 132.696 582.045C132.579 580.58 131.89 579.467 130.63 578.705C129.371 577.943 127.393 577.562 124.698 577.562H118.15ZM170.42 631.703C163.946 631.703 159.288 630.575 156.446 628.319C153.604 626.034 152.11 622.255 151.963 616.981C151.758 611.415 151.656 605.629 151.656 599.623C151.656 593.588 151.758 587.787 151.963 582.221C152.11 576.977 153.604 573.212 156.446 570.927C159.288 568.642 163.946 567.499 170.42 567.499C176.924 567.499 181.582 568.642 184.395 570.927C187.237 573.212 188.731 576.977 188.877 582.221C189.082 587.846 189.185 593.661 189.185 599.667C189.185 605.644 189.082 611.415 188.877 616.981C188.731 622.255 187.237 626.034 184.395 628.319C181.582 630.575 176.924 631.703 170.42 631.703ZM170.42 623.09C173.291 623.09 175.357 622.738 176.617 622.035C177.876 621.332 178.536 620.307 178.594 618.959C178.829 615.092 178.975 610.902 179.034 606.391C179.092 601.85 179.078 597.309 178.99 592.768C178.931 588.227 178.799 584.052 178.594 580.243C178.536 578.866 177.862 577.841 176.573 577.167C175.284 576.464 173.233 576.112 170.42 576.112C167.637 576.112 165.601 576.464 164.312 577.167C163.023 577.841 162.334 578.866 162.246 580.243C162.012 584.052 161.866 588.227 161.807 592.768C161.748 597.309 161.763 601.85 161.851 606.391C161.939 610.902 162.071 615.092 162.246 618.959C162.334 620.307 163.023 621.332 164.312 622.035C165.601 622.738 167.637 623.09 170.42 623.09ZM215.571 631.703C209.214 631.703 204.673 630.575 201.948 628.319C199.253 626.034 197.832 622.255 197.686 616.981C197.569 613.7 197.481 609.979 197.422 605.819C197.393 601.659 197.393 597.499 197.422 593.339C197.481 589.179 197.569 585.443 197.686 582.133C197.803 577.592 199.253 574.018 202.036 571.41C204.82 568.803 209.317 567.499 215.528 567.499C221.768 567.499 226.294 568.642 229.107 570.927C231.948 573.212 233.457 576.977 233.633 582.221C233.692 583.539 233.706 585.077 233.677 586.835C233.648 588.563 233.604 590.102 233.545 591.449H223.262C223.321 589.896 223.35 588.036 223.35 585.868C223.379 583.671 223.364 581.811 223.306 580.287C223.277 578.91 222.647 577.885 221.416 577.211C220.186 576.508 218.223 576.156 215.528 576.156C212.949 576.156 211.06 576.508 209.859 577.211C208.687 577.885 208.057 578.91 207.969 580.287C207.822 584.213 207.72 588.417 207.661 592.899C207.603 597.353 207.603 601.82 207.661 606.303C207.72 610.785 207.822 614.989 207.969 618.915C208.057 620.292 208.701 621.332 209.903 622.035C211.104 622.738 212.993 623.09 215.571 623.09C218.413 623.09 220.479 622.738 221.768 622.035C223.057 621.332 223.731 620.292 223.789 618.915C223.848 617.362 223.863 615.487 223.833 613.29C223.804 611.063 223.76 609.174 223.701 607.621H234.029C234.116 609.057 234.16 610.609 234.16 612.279C234.19 613.949 234.16 615.517 234.072 616.981C233.867 622.255 232.329 626.034 229.458 628.319C226.616 630.575 221.988 631.703 215.571 631.703ZM252.637 631H242.354V568.246H259.185C265.483 568.246 270.039 569.359 272.852 571.586C275.693 573.812 277.231 577.489 277.466 582.616C277.671 585.048 277.759 587.128 277.729 588.856C277.729 590.585 277.642 592.621 277.466 594.965C277.319 598.217 276.572 600.868 275.225 602.919C273.877 604.94 271.812 606.479 269.028 607.533L279.268 631H268.281L259.229 609.291H252.637V631ZM252.637 577.562V599.975H259.053C261.836 599.975 263.857 599.594 265.117 598.832C266.377 598.07 267.065 596.972 267.183 595.536C267.563 591.024 267.563 586.527 267.183 582.045C267.065 580.58 266.377 579.467 265.117 578.705C263.857 577.943 261.88 577.562 259.185 577.562H252.637ZM317.256 631H286.538V568.246H317.256V577.562H296.821V594.481H316.069V603.798H296.821V621.684H317.256V631ZM333.051 631H322.461L333.095 568.246H350.937L361.572 631H351.025L348.784 616.938H335.337L333.051 631ZM338.193 593.778L336.259 607.621H347.817L345.927 593.778L343.642 577.562H340.478L338.193 593.778ZM387.739 631H377.455V577.562H365.502V568.246H399.648V577.562H387.739V631ZM436.713 631H405.995V568.246H436.713V577.562H416.279V594.481H435.527V603.798H416.279V621.684H436.713V631Z" fill="#764274"/>
<path d="M112 302.5C90.7976 334.538 83.9998 393 84.9998 419.5C86.4998 414.833 90.9999 400.8 96.9999 382C103 363.2 124.5 344.833 134.5 338C144.5 331.167 162.3 325.9 187.5 319.5C219 311.5 241 305.5 292 286C343 266.5 365 242.5 382 219.5C396.094 200.431 415 159.5 417 130C419 100.5 411.5 74.9999 411.5 84.9999C411.5 94.9999 404.906 116.222 403.5 120C395.5 141.5 374.5 165.5 324 189.5C273.5 213.5 254.5 210 208 226C161.5 242 134.5 268.5 112 302.5Z" fill="#764274"/>
<path d="M450 0C477.614 6.0045e-05 500 22.3858 500 50V450C500 477.614 477.614 500 450 500H50C22.3858 500 4.52653e-06 477.614 0 450V50C6.44344e-06 22.3858 22.3858 4.02663e-07 50 0H450ZM74 24C46.3858 24 24 46.3858 24 74V426L24.0039 426.646C24.35 453.963 46.6016 476 74 476H426L426.646 475.996C453.748 475.653 475.653 453.748 475.996 426.646L476 426V74C476 46.6016 453.963 24.35 426.646 24.0039L426 24H74ZM426 44C442.569 44 456 57.4315 456 74V426C456 442.569 442.569 456 426 456H74C57.4315 456 44 442.569 44 426V74C44 57.4315 57.4315 44 74 44H426ZM413.645 72.9316C409.883 72.2984 406.684 73.8356 404.73 75.7988C403.151 77.3858 402.49 79.0877 402.236 79.8184C401.93 80.7006 401.781 81.4876 401.699 82.0186C401.536 83.0867 401.5 84.1405 401.5 85C401.5 88.5633 400.191 95.222 398.348 102.321C396.575 109.149 394.673 115.048 394.128 116.513C387.396 134.605 368.994 157.045 319.707 180.469C295.2 192.116 278.493 197.035 262.125 201.036C245.664 205.06 228.567 208.348 204.746 216.544C155.682 233.426 127.061 261.62 103.66 296.981C91.9816 314.629 84.6713 338.775 80.3545 361.186C76.0091 383.745 74.4739 405.753 75.0068 419.877C75.19 424.727 78.8294 428.746 83.6377 429.407C88.4458 430.068 93.0352 427.181 94.5205 422.561C96.023 417.886 100.525 403.846 106.526 385.041C108.853 377.75 114.535 369.763 121.515 362.385C128.366 355.143 135.688 349.3 140.142 346.257C143.999 343.621 149.916 340.943 158.482 338.067C166.953 335.224 177.394 332.384 189.961 329.192C221.78 321.111 244.157 314.999 295.571 295.341C348.723 275.018 372.166 249.629 390.042 225.444C397.702 215.08 406.322 199.311 413.277 182.481C420.21 165.708 425.872 146.961 426.977 130.677C428.041 114.982 426.588 100.389 424.834 90.874C424.013 86.42 422.962 82.1453 421.709 79.4492C421.454 78.9009 420.694 77.2783 419.234 75.8252C418.527 75.1214 416.658 73.4392 413.645 72.9316ZM406.036 137.589C404.144 149.084 400.032 162.167 394.793 174.843C389.379 187.944 383.025 199.976 377.343 208.666C366.55 215.61 351.072 225.744 336.382 230.77C327.288 233.881 314.181 236.441 300.371 239.09C286.802 241.692 272.586 244.374 261.989 247.733C239.474 254.872 200.597 274.616 185.096 283.116C185.033 283.151 184.972 283.187 184.911 283.224C174.431 287.665 163.917 294.996 154.642 302.705C141.971 313.237 130.938 325.046 124.463 332.931C119.337 336.836 113.007 342.275 106.985 348.641C105.459 350.254 103.921 351.96 102.407 353.746C106.279 337.504 111.688 322.127 118.763 310.504C127.86 302.775 141.221 292.572 154.142 283.292C167.857 273.441 180.721 264.886 187.32 261.429C197.298 256.202 212.29 251.256 229.191 246.807C246.005 242.381 264.378 238.531 280.926 235.413C316.386 228.732 343.707 212.313 357.727 203.191C357.834 203.121 357.94 203.046 358.042 202.968C373 191.5 387.393 171.24 394.92 152.548C399.362 147.556 403.033 142.566 406.036 137.589ZM310.013 267.305C303.491 270.512 296.33 273.639 288.429 276.66C237.843 296.002 216.219 301.889 185.038 309.808C172.406 313.016 161.347 316.009 152.117 319.107C151.64 319.267 151.167 319.428 150.696 319.59C153.955 316.503 157.427 313.393 161.033 310.396C173.517 300.019 186.941 291.567 198.422 289.414C214.404 286.417 247.575 280.284 278.371 274.024C289.518 271.759 300.377 269.469 310.013 267.305ZM372.556 172.649C366.398 181.471 359.252 189.404 352.106 194.916C338.415 203.812 312.478 219.293 279.074 225.587C262.406 228.727 243.778 232.627 226.646 237.137C209.602 241.623 193.702 246.798 182.68 252.571C175.379 256.396 161.991 265.342 148.308 275.17C146.388 276.549 144.455 277.95 142.525 279.362C159.923 260.607 181.266 245.775 211.254 235.456C233.933 227.653 249.586 224.69 266.874 220.464C284.256 216.215 302.3 210.885 328.292 198.532C346.242 190.001 360.804 181.349 372.556 172.649ZM359.594 231.159C354.122 237.089 347.856 242.984 340.324 248.751C339.094 249.348 336.664 250.223 332.923 251.318C328.982 252.473 323.954 253.772 318.117 255.169C306.45 257.962 291.734 261.105 276.379 264.226C258.547 267.85 239.913 271.431 224.286 274.386C238.712 267.491 254.031 260.748 265.011 257.267C274.914 254.127 288.448 251.558 302.254 248.91C315.819 246.309 329.713 243.619 339.618 240.23C346.259 237.958 353.102 234.691 359.594 231.159Z" fill="#9E779D"/>
</g>
<defs>
<clipPath id="clip0_26_81">
<rect width="500" height="650" fill="white"/>
</clipPath>
</defs>
</svg>
