<svg width="500" height="650" viewBox="0 0 500 650" fill="none" xmlns="http://www.w3.org/2000/svg">
<g clip-path="url(#clip0_42_322)">
<path d="M134.397 623H124.114V560.246H141.121C147.479 560.246 152.078 561.359 154.92 563.586C157.762 565.812 159.314 569.489 159.578 574.616C159.783 577.048 159.886 579.289 159.886 581.34C159.886 583.361 159.783 585.544 159.578 587.888C159.314 592.985 157.747 596.647 154.876 598.874C152.034 601.101 147.405 602.214 140.989 602.214H134.397V623ZM134.397 569.562V592.897H140.989C143.831 592.897 145.882 592.517 147.142 591.755C148.431 590.993 149.134 589.895 149.251 588.459C149.456 586.291 149.559 583.889 149.559 581.252C149.559 578.586 149.456 576.184 149.251 574.045C149.134 572.58 148.445 571.467 147.186 570.705C145.926 569.943 143.904 569.562 141.121 569.562H134.397ZM189.304 623H178.933V607.707L164.783 560.246H175.374L180.12 575.935L182.976 596.018H185.393L188.162 575.935L192.908 560.246H203.499L189.304 607.707V623ZM229.534 623H219.251V569.562H207.297V560.246H241.443V569.562H229.534V623ZM258.074 623H247.79V560.246H258.074V586.481H274.026V560.246H284.309V623H274.026V595.798H258.074V623ZM311.662 623.703C305.188 623.703 300.529 622.575 297.688 620.319C294.846 618.034 293.352 614.255 293.205 608.981C293 603.415 292.898 597.629 292.898 591.623C292.898 585.588 293 579.787 293.205 574.221C293.352 568.977 294.846 565.212 297.688 562.927C300.529 560.642 305.188 559.499 311.662 559.499C318.166 559.499 322.824 560.642 325.637 562.927C328.479 565.212 329.973 568.977 330.119 574.221C330.324 579.846 330.427 585.661 330.427 591.667C330.427 597.644 330.324 603.415 330.119 608.981C329.973 614.255 328.479 618.034 325.637 620.319C322.824 622.575 318.166 623.703 311.662 623.703ZM311.662 615.09C314.533 615.09 316.599 614.738 317.859 614.035C319.118 613.332 319.778 612.307 319.836 610.959C320.07 607.092 320.217 602.902 320.276 598.391C320.334 593.85 320.32 589.309 320.232 584.768C320.173 580.227 320.041 576.052 319.836 572.243C319.778 570.866 319.104 569.841 317.815 569.167C316.526 568.464 314.475 568.112 311.662 568.112C308.879 568.112 306.843 568.464 305.554 569.167C304.265 569.841 303.576 570.866 303.488 572.243C303.254 576.052 303.108 580.227 303.049 584.768C302.99 589.309 303.005 593.85 303.093 598.391C303.181 602.902 303.313 607.092 303.488 610.959C303.576 612.307 304.265 613.332 305.554 614.035C306.843 614.738 308.879 615.09 311.662 615.09ZM348.947 623H338.972V560.246H354.836L359.934 580.241L366.086 613.684H368.503L366.613 586.306L365.866 560.246H375.842V623H359.318L353.913 602.082L348.903 569.519H346.398L348.112 599.006L348.947 623Z" fill="#764274"/>
<path d="M228.999 0.5C270.199 0.5 296.499 3.16673 313.499 6C330.999 8.91671 362.999 28 367.499 56.5V188C366.666 195.5 361.699 213.3 348.499 224.5C331.999 238.5 327.999 240 300.499 240.5C278.499 240.9 209.999 240.667 178.499 240.5C168.332 243.167 145.099 252 133.499 266C118.999 283.5 114.999 303 114.999 306V369H65.499C58.6656 367.333 43.2989 362.3 36.499 355.5C27.999 347 13.999 327 11.499 310.5C8.99902 294 3.99902 280 3.49902 257.5C2.99902 235 5.99904 203.5 10.499 190C14.999 176.5 21 156 38 143.5C54.9999 131 67.0001 127 87.5 127.5C103.901 127.9 202.333 127.667 249.499 127.5V112H130.999V55.5C131.832 45.1667 133 28 152.499 16.5C170.257 6.02743 200.999 0.500048 228.999 0.5ZM182.5 35C169.521 35 159 45.5213 159 58.5C159 71.4787 169.521 82 182.5 82C195.479 81.9998 206 71.4786 206 58.5C206 45.5214 195.479 35.0002 182.5 35Z" fill="#9E779D"/>
<path d="M256.001 499C214.801 499 200.681 494.433 184.5 488.5C169.999 483.183 135.5 468 131 439.5V308C131.833 300.5 136.8 282.7 150 271.5C166.5 257.5 170.5 256 198 255.5C220 255.1 288.5 255.333 320 255.5C330.167 252.833 353.4 244 365 230C379.5 212.5 383.5 193 383.5 190V127H433C439.833 128.667 455.2 133.7 462 140.5C470.5 149 484.5 169 487 185.5C489.5 202 494.5 216 495 238.5C495.5 261 496.834 279.5 488 306C483.5 319.5 475 346.5 458 359C441 371.5 431.5 369 411 368.5C394.6 368.1 296.167 368.333 249 368.5V384H367.5V440.5C366.667 450.833 359 465 339.5 476.5C321.742 486.973 284.001 499 256.001 499ZM316 461C328.979 461 339.5 450.479 339.5 437.5C339.5 424.521 328.979 414 316 414C303.021 414 292.5 424.521 292.5 437.5C292.5 450.479 303.021 461 316 461Z" fill="#764274"/>
</g>
<defs>
<clipPath id="clip0_42_322">
<rect width="500" height="650" fill="white"/>
</clipPath>
</defs>
</svg>
